<svg width="400" height="220" viewBox="0 0 400 220" fill="none" xmlns="http://www.w3.org/2000/svg">
<rect x="0.5" y="0.5" width="399" height="219" rx="19.5" fill="white"/>
<path d="M201.529 80.8V92H199.449V82.544H197.081V80.8H201.529Z" fill="#3D3D3D"/>
<rect x="181" y="67" width="38" height="38" rx="19" stroke="#0032FF" stroke-width="2"/>
<path d="M145.529 120.8V132H143.449V122.544H141.081V120.8H145.529Z" fill="#3D3D3D"/>
<rect x="125" y="107" width="38" height="38" rx="19" stroke="#0032FF" stroke-width="2"/>
<path d="M260.16 130.24V132H251.904V130.608L256.352 126.384C256.853 125.904 257.189 125.488 257.36 125.136C257.541 124.773 257.632 124.416 257.632 124.064C257.632 123.541 257.456 123.141 257.104 122.864C256.752 122.587 256.234 122.448 255.552 122.448C254.41 122.448 253.536 122.837 252.928 123.616L251.472 122.496C251.909 121.909 252.496 121.456 253.232 121.136C253.978 120.805 254.81 120.64 255.728 120.64C256.944 120.64 257.914 120.928 258.64 121.504C259.365 122.08 259.728 122.864 259.728 123.856C259.728 124.464 259.6 125.035 259.344 125.568C259.088 126.101 258.597 126.709 257.872 127.392L254.88 130.24H260.16Z" fill="#3D3D3D"/>
<rect x="237" y="107" width="38" height="38" rx="19" stroke="#0032FF" stroke-width="2"/>
<path d="M116.816 173.424C117.85 173.552 118.64 173.904 119.184 174.48C119.728 175.056 120 175.776 120 176.64C120 177.291 119.834 177.883 119.504 178.416C119.173 178.949 118.672 179.376 118 179.696C117.338 180.005 116.528 180.16 115.568 180.16C114.768 180.16 113.994 180.048 113.248 179.824C112.512 179.589 111.882 179.269 111.36 178.864L112.256 177.248C112.661 177.589 113.152 177.861 113.728 178.064C114.314 178.256 114.917 178.352 115.536 178.352C116.272 178.352 116.848 178.203 117.264 177.904C117.69 177.595 117.904 177.179 117.904 176.656C117.904 176.133 117.701 175.728 117.296 175.44C116.901 175.141 116.293 174.992 115.472 174.992H114.448V173.568L116.992 170.544H111.904V168.8H119.536V170.192L116.816 173.424Z" fill="#3D3D3D"/>
<rect x="97" y="155" width="38" height="38" rx="19" stroke="#0032FF" stroke-width="2"/>
<path d="M171.536 173.136C173.115 173.136 174.283 173.445 175.04 174.064C175.797 174.672 176.176 175.504 176.176 176.56C176.176 177.232 176.011 177.84 175.68 178.384C175.349 178.928 174.853 179.36 174.192 179.68C173.531 180 172.715 180.16 171.744 180.16C170.944 180.16 170.171 180.048 169.424 179.824C168.677 179.589 168.048 179.269 167.536 178.864L168.416 177.248C168.832 177.589 169.328 177.861 169.904 178.064C170.491 178.256 171.093 178.352 171.712 178.352C172.448 178.352 173.024 178.203 173.44 177.904C173.867 177.595 174.08 177.173 174.08 176.64C174.08 176.064 173.851 175.632 173.392 175.344C172.944 175.045 172.171 174.896 171.072 174.896H168.368L168.944 168.8H175.52V170.544H170.704L170.464 173.136H171.536Z" fill="#3D3D3D"/>
<rect x="153" y="155" width="38" height="38" rx="19" stroke="#0032FF" stroke-width="2"/>
<path d="M230.749 174.112C231.336 174.379 231.784 174.741 232.093 175.2C232.413 175.648 232.573 176.176 232.573 176.784C232.573 177.467 232.381 178.064 231.997 178.576C231.624 179.088 231.091 179.483 230.397 179.76C229.704 180.027 228.899 180.16 227.981 180.16C227.064 180.16 226.259 180.027 225.565 179.76C224.883 179.483 224.355 179.088 223.981 178.576C223.608 178.064 223.421 177.467 223.421 176.784C223.421 176.176 223.576 175.648 223.885 175.2C224.195 174.741 224.637 174.379 225.213 174.112C224.765 173.867 224.419 173.547 224.173 173.152C223.939 172.747 223.821 172.283 223.821 171.76C223.821 171.131 223.992 170.581 224.333 170.112C224.685 169.643 225.176 169.28 225.805 169.024C226.435 168.768 227.16 168.64 227.981 168.64C228.813 168.64 229.544 168.768 230.173 169.024C230.803 169.28 231.293 169.643 231.645 170.112C231.997 170.581 232.173 171.131 232.173 171.76C232.173 172.283 232.051 172.741 231.805 173.136C231.56 173.531 231.208 173.856 230.749 174.112ZM227.981 170.272C227.331 170.272 226.813 170.411 226.429 170.688C226.056 170.965 225.869 171.355 225.869 171.856C225.869 172.336 226.056 172.72 226.429 173.008C226.813 173.285 227.331 173.424 227.981 173.424C228.643 173.424 229.165 173.285 229.549 173.008C229.933 172.72 230.125 172.336 230.125 171.856C230.125 171.355 229.928 170.965 229.533 170.688C229.149 170.411 228.632 170.272 227.981 170.272ZM227.981 178.528C228.749 178.528 229.357 178.368 229.805 178.048C230.253 177.728 230.477 177.285 230.477 176.72C230.477 176.165 230.253 175.728 229.805 175.408C229.357 175.088 228.749 174.928 227.981 174.928C227.213 174.928 226.611 175.088 226.173 175.408C225.736 175.728 225.517 176.165 225.517 176.72C225.517 177.285 225.736 177.728 226.173 178.048C226.611 178.368 227.213 178.528 227.981 178.528Z" fill="#3D3D3D"/>
<rect x="209" y="155" width="38" height="38" rx="19" stroke="#0032FF" stroke-width="2"/>
<path d="M280.873 168.8V180H278.793V170.544H276.425V168.8H280.873ZM287.863 173.424C288.897 173.552 289.687 173.904 290.231 174.48C290.775 175.056 291.047 175.776 291.047 176.64C291.047 177.291 290.881 177.883 290.551 178.416C290.22 178.949 289.719 179.376 289.047 179.696C288.385 180.005 287.575 180.16 286.615 180.16C285.815 180.16 285.041 180.048 284.295 179.824C283.559 179.589 282.929 179.269 282.407 178.864L283.303 177.248C283.708 177.589 284.199 177.861 284.775 178.064C285.361 178.256 285.964 178.352 286.583 178.352C287.319 178.352 287.895 178.203 288.311 177.904C288.737 177.595 288.951 177.179 288.951 176.656C288.951 176.133 288.748 175.728 288.343 175.44C287.948 175.141 287.34 174.992 286.519 174.992H285.495V173.568L288.039 170.544H282.951V168.8H290.583V170.192L287.863 173.424Z" fill="#3D3D3D"/>
<rect x="265" y="155" width="38" height="38" rx="19" stroke="#0032FF" stroke-width="2"/>
<path d="M110.88 34.196H117.162V36.176H110.88V34.196ZM111.078 41H108.738V28.4H117.936V30.362H111.078V41ZM119.983 41V31.388H122.233V41H119.983ZM121.117 29.804C120.697 29.804 120.349 29.672 120.073 29.408C119.809 29.144 119.677 28.826 119.677 28.454C119.677 28.07 119.809 27.752 120.073 27.5C120.349 27.236 120.697 27.104 121.117 27.104C121.537 27.104 121.879 27.23 122.143 27.482C122.419 27.722 122.557 28.028 122.557 28.4C122.557 28.796 122.425 29.132 122.161 29.408C121.897 29.672 121.549 29.804 121.117 29.804ZM130.514 41.126C129.698 41.126 128.972 40.946 128.336 40.586C127.7 40.226 127.196 39.686 126.824 38.966C126.464 38.234 126.284 37.31 126.284 36.194C126.284 35.066 126.47 34.142 126.842 33.422C127.226 32.702 127.736 32.168 128.372 31.82C129.02 31.46 129.734 31.28 130.514 31.28C131.462 31.28 132.296 31.484 133.016 31.892C133.748 32.3 134.324 32.87 134.744 33.602C135.176 34.334 135.392 35.198 135.392 36.194C135.392 37.19 135.176 38.054 134.744 38.786C134.324 39.518 133.748 40.094 133.016 40.514C132.296 40.922 131.462 41.126 130.514 41.126ZM125.186 41V27.644H127.436V33.62L127.256 36.176L127.328 38.732V41H125.186ZM130.262 39.2C130.802 39.2 131.282 39.08 131.702 38.84C132.134 38.6 132.476 38.252 132.728 37.796C132.98 37.34 133.106 36.806 133.106 36.194C133.106 35.57 132.98 35.036 132.728 34.592C132.476 34.136 132.134 33.788 131.702 33.548C131.282 33.308 130.802 33.188 130.262 33.188C129.722 33.188 129.236 33.308 128.804 33.548C128.372 33.788 128.03 34.136 127.778 34.592C127.526 35.036 127.4 35.57 127.4 36.194C127.4 36.806 127.526 37.34 127.778 37.796C128.03 38.252 128.372 38.6 128.804 38.84C129.236 39.08 129.722 39.2 130.262 39.2ZM141.846 41.126C140.862 41.126 139.986 40.916 139.218 40.496C138.45 40.064 137.844 39.476 137.4 38.732C136.956 37.988 136.734 37.142 136.734 36.194C136.734 35.234 136.956 34.388 137.4 33.656C137.844 32.912 138.45 32.33 139.218 31.91C139.986 31.49 140.862 31.28 141.846 31.28C142.842 31.28 143.724 31.49 144.492 31.91C145.272 32.33 145.878 32.906 146.31 33.638C146.754 34.37 146.976 35.222 146.976 36.194C146.976 37.142 146.754 37.988 146.31 38.732C145.878 39.476 145.272 40.064 144.492 40.496C143.724 40.916 142.842 41.126 141.846 41.126ZM141.846 39.2C142.398 39.2 142.89 39.08 143.322 38.84C143.754 38.6 144.09 38.252 144.33 37.796C144.582 37.34 144.708 36.806 144.708 36.194C144.708 35.57 144.582 35.036 144.33 34.592C144.09 34.136 143.754 33.788 143.322 33.548C142.89 33.308 142.404 33.188 141.864 33.188C141.312 33.188 140.82 33.308 140.388 33.548C139.968 33.788 139.632 34.136 139.38 34.592C139.128 35.036 139.002 35.57 139.002 36.194C139.002 36.806 139.128 37.34 139.38 37.796C139.632 38.252 139.968 38.6 140.388 38.84C140.82 39.08 141.306 39.2 141.846 39.2ZM154.581 31.28C155.349 31.28 156.033 31.43 156.633 31.73C157.245 32.03 157.725 32.492 158.073 33.116C158.421 33.728 158.595 34.52 158.595 35.492V41H156.345V35.78C156.345 34.928 156.141 34.292 155.733 33.872C155.337 33.452 154.779 33.242 154.059 33.242C153.531 33.242 153.063 33.35 152.655 33.566C152.247 33.782 151.929 34.106 151.701 34.538C151.485 34.958 151.377 35.492 151.377 36.14V41H149.127V31.388H151.269V33.98L150.891 33.188C151.227 32.576 151.713 32.108 152.349 31.784C152.997 31.448 153.741 31.28 154.581 31.28ZM167.372 41V39.056L167.246 38.642V35.24C167.246 34.58 167.048 34.07 166.652 33.71C166.256 33.338 165.656 33.152 164.852 33.152C164.312 33.152 163.778 33.236 163.25 33.404C162.734 33.572 162.296 33.806 161.936 34.106L161.054 32.468C161.57 32.072 162.182 31.778 162.89 31.586C163.61 31.382 164.354 31.28 165.122 31.28C166.514 31.28 167.588 31.616 168.344 32.288C169.112 32.948 169.496 33.974 169.496 35.366V41H167.372ZM164.348 41.126C163.628 41.126 162.998 41.006 162.458 40.766C161.918 40.514 161.498 40.172 161.198 39.74C160.91 39.296 160.766 38.798 160.766 38.246C160.766 37.706 160.892 37.22 161.144 36.788C161.408 36.356 161.834 36.014 162.422 35.762C163.01 35.51 163.79 35.384 164.762 35.384H167.552V36.878H164.924C164.156 36.878 163.64 37.004 163.376 37.256C163.112 37.496 162.98 37.796 162.98 38.156C162.98 38.564 163.142 38.888 163.466 39.128C163.79 39.368 164.24 39.488 164.816 39.488C165.368 39.488 165.86 39.362 166.292 39.11C166.736 38.858 167.054 38.486 167.246 37.994L167.624 39.344C167.408 39.908 167.018 40.346 166.454 40.658C165.902 40.97 165.2 41.126 164.348 41.126ZM176.811 41.126C175.803 41.126 174.903 40.916 174.111 40.496C173.331 40.064 172.719 39.476 172.275 38.732C171.831 37.988 171.609 37.142 171.609 36.194C171.609 35.234 171.831 34.388 172.275 33.656C172.719 32.912 173.331 32.33 174.111 31.91C174.903 31.49 175.803 31.28 176.811 31.28C177.747 31.28 178.569 31.472 179.277 31.856C179.997 32.228 180.543 32.78 180.915 33.512L179.187 34.52C178.899 34.064 178.545 33.728 178.125 33.512C177.717 33.296 177.273 33.188 176.793 33.188C176.241 33.188 175.743 33.308 175.299 33.548C174.855 33.788 174.507 34.136 174.255 34.592C174.003 35.036 173.877 35.57 173.877 36.194C173.877 36.818 174.003 37.358 174.255 37.814C174.507 38.258 174.855 38.6 175.299 38.84C175.743 39.08 176.241 39.2 176.793 39.2C177.273 39.2 177.717 39.092 178.125 38.876C178.545 38.66 178.899 38.324 179.187 37.868L180.915 38.876C180.543 39.596 179.997 40.154 179.277 40.55C178.569 40.934 177.747 41.126 176.811 41.126ZM187.129 41.126C186.121 41.126 185.221 40.916 184.429 40.496C183.649 40.064 183.037 39.476 182.593 38.732C182.149 37.988 181.927 37.142 181.927 36.194C181.927 35.234 182.149 34.388 182.593 33.656C183.037 32.912 183.649 32.33 184.429 31.91C185.221 31.49 186.121 31.28 187.129 31.28C188.065 31.28 188.887 31.472 189.595 31.856C190.315 32.228 190.861 32.78 191.233 33.512L189.505 34.52C189.217 34.064 188.863 33.728 188.443 33.512C188.035 33.296 187.591 33.188 187.111 33.188C186.559 33.188 186.061 33.308 185.617 33.548C185.173 33.788 184.825 34.136 184.573 34.592C184.321 35.036 184.195 35.57 184.195 36.194C184.195 36.818 184.321 37.358 184.573 37.814C184.825 38.258 185.173 38.6 185.617 38.84C186.061 39.08 186.559 39.2 187.111 39.2C187.591 39.2 188.035 39.092 188.443 38.876C188.863 38.66 189.217 38.324 189.505 37.868L191.233 38.876C190.861 39.596 190.315 40.154 189.595 40.55C188.887 40.934 188.065 41.126 187.129 41.126ZM193.09 41V31.388H195.34V41H193.09ZM194.224 29.804C193.804 29.804 193.456 29.672 193.18 29.408C192.916 29.144 192.784 28.826 192.784 28.454C192.784 28.07 192.916 27.752 193.18 27.5C193.456 27.236 193.804 27.104 194.224 27.104C194.644 27.104 194.986 27.23 195.25 27.482C195.526 27.722 195.664 28.028 195.664 28.4C195.664 28.796 195.532 29.132 195.268 29.408C195.004 29.672 194.656 29.804 194.224 29.804ZM207.39 41.18C206.406 41.18 205.464 41.042 204.564 40.766C203.664 40.478 202.95 40.112 202.422 39.668L203.232 37.85C203.736 38.246 204.36 38.576 205.104 38.84C205.848 39.104 206.61 39.236 207.39 39.236C208.05 39.236 208.584 39.164 208.992 39.02C209.4 38.876 209.7 38.684 209.892 38.444C210.084 38.192 210.18 37.91 210.18 37.598C210.18 37.214 210.042 36.908 209.766 36.68C209.49 36.44 209.13 36.254 208.686 36.122C208.254 35.978 207.768 35.846 207.228 35.726C206.7 35.606 206.166 35.468 205.626 35.312C205.098 35.144 204.612 34.934 204.168 34.682C203.736 34.418 203.382 34.07 203.106 33.638C202.83 33.206 202.692 32.654 202.692 31.982C202.692 31.298 202.872 30.674 203.232 30.11C203.604 29.534 204.162 29.078 204.906 28.742C205.662 28.394 206.616 28.22 207.768 28.22C208.524 28.22 209.274 28.316 210.018 28.508C210.762 28.7 211.41 28.976 211.962 29.336L211.224 31.154C210.66 30.818 210.078 30.572 209.478 30.416C208.878 30.248 208.302 30.164 207.75 30.164C207.102 30.164 206.574 30.242 206.166 30.398C205.77 30.554 205.476 30.758 205.284 31.01C205.104 31.262 205.014 31.55 205.014 31.874C205.014 32.258 205.146 32.57 205.41 32.81C205.686 33.038 206.04 33.218 206.472 33.35C206.916 33.482 207.408 33.614 207.948 33.746C208.488 33.866 209.022 34.004 209.55 34.16C210.09 34.316 210.576 34.52 211.008 34.772C211.452 35.024 211.806 35.366 212.07 35.798C212.346 36.23 212.484 36.776 212.484 37.436C212.484 38.108 212.298 38.732 211.926 39.308C211.566 39.872 211.008 40.328 210.252 40.676C209.496 41.012 208.542 41.18 207.39 41.18ZM219.106 41.126C218.038 41.126 217.102 40.916 216.298 40.496C215.506 40.064 214.888 39.476 214.444 38.732C214.012 37.988 213.796 37.142 213.796 36.194C213.796 35.234 214.006 34.388 214.426 33.656C214.858 32.912 215.446 32.33 216.19 31.91C216.946 31.49 217.804 31.28 218.764 31.28C219.7 31.28 220.534 31.484 221.266 31.892C221.998 32.3 222.574 32.876 222.994 33.62C223.414 34.364 223.624 35.24 223.624 36.248C223.624 36.344 223.618 36.452 223.606 36.572C223.606 36.692 223.6 36.806 223.588 36.914H215.578V35.42H222.4L221.518 35.888C221.53 35.336 221.416 34.85 221.176 34.43C220.936 34.01 220.606 33.68 220.186 33.44C219.778 33.2 219.304 33.08 218.764 33.08C218.212 33.08 217.726 33.2 217.306 33.44C216.898 33.68 216.574 34.016 216.334 34.448C216.106 34.868 215.992 35.366 215.992 35.942V36.302C215.992 36.878 216.124 37.388 216.388 37.832C216.652 38.276 217.024 38.618 217.504 38.858C217.984 39.098 218.536 39.218 219.16 39.218C219.7 39.218 220.186 39.134 220.618 38.966C221.05 38.798 221.434 38.534 221.77 38.174L222.976 39.56C222.544 40.064 221.998 40.454 221.338 40.73C220.69 40.994 219.946 41.126 219.106 41.126ZM229.854 41.126C228.93 41.126 228.096 40.922 227.352 40.514C226.62 40.106 226.044 39.536 225.624 38.804C225.204 38.06 224.994 37.19 224.994 36.194C224.994 35.198 225.204 34.334 225.624 33.602C226.044 32.87 226.62 32.3 227.352 31.892C228.096 31.484 228.93 31.28 229.854 31.28C230.682 31.28 231.408 31.46 232.032 31.82C232.668 32.168 233.166 32.702 233.526 33.422C233.898 34.142 234.084 35.066 234.084 36.194C234.084 37.31 233.892 38.234 233.508 38.966C233.136 39.686 232.632 40.226 231.996 40.586C231.36 40.946 230.646 41.126 229.854 41.126ZM230.106 39.2C230.646 39.2 231.132 39.08 231.564 38.84C231.996 38.6 232.338 38.252 232.59 37.796C232.842 37.34 232.968 36.806 232.968 36.194C232.968 35.57 232.842 35.036 232.59 34.592C232.338 34.136 231.996 33.788 231.564 33.548C231.132 33.308 230.646 33.188 230.106 33.188C229.566 33.188 229.08 33.308 228.648 33.548C228.228 33.788 227.892 34.136 227.64 34.592C227.388 35.036 227.262 35.57 227.262 36.194C227.262 36.806 227.388 37.34 227.64 37.796C227.892 38.252 228.228 38.6 228.648 38.84C229.08 39.08 229.566 39.2 230.106 39.2ZM232.932 44.492V38.768L233.112 36.212L233.04 33.656V31.388H235.182V44.492H232.932ZM242.193 41.126C241.377 41.126 240.657 40.976 240.033 40.676C239.409 40.364 238.923 39.896 238.575 39.272C238.227 38.636 238.053 37.838 238.053 36.878V31.388H240.303V36.572C240.303 37.436 240.495 38.084 240.879 38.516C241.275 38.936 241.833 39.146 242.553 39.146C243.081 39.146 243.537 39.038 243.921 38.822C244.317 38.606 244.623 38.282 244.839 37.85C245.067 37.418 245.181 36.884 245.181 36.248V31.388H247.431V41H245.289V38.408L245.667 39.2C245.343 39.824 244.869 40.304 244.245 40.64C243.621 40.964 242.937 41.126 242.193 41.126ZM254.895 41.126C253.827 41.126 252.891 40.916 252.087 40.496C251.295 40.064 250.677 39.476 250.233 38.732C249.801 37.988 249.585 37.142 249.585 36.194C249.585 35.234 249.795 34.388 250.215 33.656C250.647 32.912 251.235 32.33 251.979 31.91C252.735 31.49 253.593 31.28 254.553 31.28C255.489 31.28 256.323 31.484 257.055 31.892C257.787 32.3 258.363 32.876 258.783 33.62C259.203 34.364 259.413 35.24 259.413 36.248C259.413 36.344 259.407 36.452 259.395 36.572C259.395 36.692 259.389 36.806 259.377 36.914H251.367V35.42H258.189L257.307 35.888C257.319 35.336 257.205 34.85 256.965 34.43C256.725 34.01 256.395 33.68 255.975 33.44C255.567 33.2 255.093 33.08 254.553 33.08C254.001 33.08 253.515 33.2 253.095 33.44C252.687 33.68 252.363 34.016 252.123 34.448C251.895 34.868 251.781 35.366 251.781 35.942V36.302C251.781 36.878 251.913 37.388 252.177 37.832C252.441 38.276 252.813 38.618 253.293 38.858C253.773 39.098 254.325 39.218 254.949 39.218C255.489 39.218 255.975 39.134 256.407 38.966C256.839 38.798 257.223 38.534 257.559 38.174L258.765 39.56C258.333 40.064 257.787 40.454 257.127 40.73C256.479 40.994 255.735 41.126 254.895 41.126ZM267.029 31.28C267.797 31.28 268.481 31.43 269.081 31.73C269.693 32.03 270.173 32.492 270.521 33.116C270.869 33.728 271.043 34.52 271.043 35.492V41H268.793V35.78C268.793 34.928 268.589 34.292 268.181 33.872C267.785 33.452 267.227 33.242 266.507 33.242C265.979 33.242 265.511 33.35 265.103 33.566C264.695 33.782 264.377 34.106 264.149 34.538C263.933 34.958 263.825 35.492 263.825 36.14V41H261.575V31.388H263.717V33.98L263.339 33.188C263.675 32.576 264.161 32.108 264.797 31.784C265.445 31.448 266.189 31.28 267.029 31.28ZM278.324 41.126C277.316 41.126 276.416 40.916 275.624 40.496C274.844 40.064 274.232 39.476 273.788 38.732C273.344 37.988 273.122 37.142 273.122 36.194C273.122 35.234 273.344 34.388 273.788 33.656C274.232 32.912 274.844 32.33 275.624 31.91C276.416 31.49 277.316 31.28 278.324 31.28C279.26 31.28 280.082 31.472 280.79 31.856C281.51 32.228 282.056 32.78 282.428 33.512L280.7 34.52C280.412 34.064 280.058 33.728 279.638 33.512C279.23 33.296 278.786 33.188 278.306 33.188C277.754 33.188 277.256 33.308 276.812 33.548C276.368 33.788 276.02 34.136 275.768 34.592C275.516 35.036 275.39 35.57 275.39 36.194C275.39 36.818 275.516 37.358 275.768 37.814C276.02 38.258 276.368 38.6 276.812 38.84C277.256 39.08 277.754 39.2 278.306 39.2C278.786 39.2 279.23 39.092 279.638 38.876C280.058 38.66 280.412 38.324 280.7 37.868L282.428 38.876C282.056 39.596 281.51 40.154 280.79 40.55C280.082 40.934 279.26 41.126 278.324 41.126ZM288.751 41.126C287.683 41.126 286.747 40.916 285.943 40.496C285.151 40.064 284.533 39.476 284.089 38.732C283.657 37.988 283.441 37.142 283.441 36.194C283.441 35.234 283.651 34.388 284.071 33.656C284.503 32.912 285.091 32.33 285.835 31.91C286.591 31.49 287.449 31.28 288.409 31.28C289.345 31.28 290.179 31.484 290.911 31.892C291.643 32.3 292.219 32.876 292.639 33.62C293.059 34.364 293.269 35.24 293.269 36.248C293.269 36.344 293.263 36.452 293.251 36.572C293.251 36.692 293.245 36.806 293.233 36.914H285.223V35.42H292.045L291.163 35.888C291.175 35.336 291.061 34.85 290.821 34.43C290.581 34.01 290.251 33.68 289.831 33.44C289.423 33.2 288.949 33.08 288.409 33.08C287.857 33.08 287.371 33.2 286.951 33.44C286.543 33.68 286.219 34.016 285.979 34.448C285.751 34.868 285.637 35.366 285.637 35.942V36.302C285.637 36.878 285.769 37.388 286.033 37.832C286.297 38.276 286.669 38.618 287.149 38.858C287.629 39.098 288.181 39.218 288.805 39.218C289.345 39.218 289.831 39.134 290.263 38.966C290.695 38.798 291.079 38.534 291.415 38.174L292.621 39.56C292.189 40.064 291.643 40.454 290.983 40.73C290.335 40.994 289.591 41.126 288.751 41.126Z" fill="#141414"/>
<rect x="0.5" y="0.5" width="399" height="219" rx="19.5" stroke="#141414"/>
</svg>
