<svg width="400" height="220" viewBox="0 0 400 220" fill="none" xmlns="http://www.w3.org/2000/svg">
<rect x="0.5" y="0.5" width="399" height="219" rx="19.5" fill="white"/>
<path d="M154.099 41V28.4H156.439V39.02H163.027V41H154.099ZM164.659 41V31.388H166.909V41H164.659ZM165.793 29.804C165.373 29.804 165.025 29.672 164.749 29.408C164.485 29.144 164.353 28.826 164.353 28.454C164.353 28.07 164.485 27.752 164.749 27.5C165.025 27.236 165.373 27.104 165.793 27.104C166.213 27.104 166.555 27.23 166.819 27.482C167.095 27.722 167.233 28.028 167.233 28.4C167.233 28.796 167.101 29.132 166.837 29.408C166.573 29.672 166.225 29.804 165.793 29.804ZM175.316 31.28C176.084 31.28 176.768 31.43 177.368 31.73C177.98 32.03 178.46 32.492 178.808 33.116C179.156 33.728 179.33 34.52 179.33 35.492V41H177.08V35.78C177.08 34.928 176.876 34.292 176.468 33.872C176.072 33.452 175.514 33.242 174.794 33.242C174.266 33.242 173.798 33.35 173.39 33.566C172.982 33.782 172.664 34.106 172.436 34.538C172.22 34.958 172.112 35.492 172.112 36.14V41H169.862V31.388H172.004V33.98L171.626 33.188C171.962 32.576 172.448 32.108 173.084 31.784C173.732 31.448 174.476 31.28 175.316 31.28ZM184.02 38.858L184.074 36.032L189.096 31.388H191.796L187.53 35.672L186.342 36.662L184.02 38.858ZM182.184 41V27.644H184.434V41H182.184ZM189.438 41L185.928 36.662L187.35 34.862L192.174 41H189.438ZM197.759 41.126C196.691 41.126 195.755 40.916 194.951 40.496C194.159 40.064 193.541 39.476 193.097 38.732C192.665 37.988 192.449 37.142 192.449 36.194C192.449 35.234 192.659 34.388 193.079 33.656C193.511 32.912 194.099 32.33 194.843 31.91C195.599 31.49 196.457 31.28 197.417 31.28C198.353 31.28 199.187 31.484 199.919 31.892C200.651 32.3 201.227 32.876 201.647 33.62C202.067 34.364 202.277 35.24 202.277 36.248C202.277 36.344 202.271 36.452 202.259 36.572C202.259 36.692 202.253 36.806 202.241 36.914H194.231V35.42H201.053L200.171 35.888C200.183 35.336 200.069 34.85 199.829 34.43C199.589 34.01 199.259 33.68 198.839 33.44C198.431 33.2 197.957 33.08 197.417 33.08C196.865 33.08 196.379 33.2 195.959 33.44C195.551 33.68 195.227 34.016 194.987 34.448C194.759 34.868 194.645 35.366 194.645 35.942V36.302C194.645 36.878 194.777 37.388 195.041 37.832C195.305 38.276 195.677 38.618 196.157 38.858C196.637 39.098 197.189 39.218 197.813 39.218C198.353 39.218 198.839 39.134 199.271 38.966C199.703 38.798 200.087 38.534 200.423 38.174L201.629 39.56C201.197 40.064 200.651 40.454 199.991 40.73C199.343 40.994 198.599 41.126 197.759 41.126ZM208.506 41.126C207.582 41.126 206.748 40.922 206.004 40.514C205.272 40.094 204.696 39.518 204.276 38.786C203.856 38.054 203.646 37.19 203.646 36.194C203.646 35.198 203.856 34.334 204.276 33.602C204.696 32.87 205.272 32.3 206.004 31.892C206.748 31.484 207.582 31.28 208.506 31.28C209.31 31.28 210.03 31.46 210.666 31.82C211.302 32.168 211.806 32.702 212.178 33.422C212.55 34.142 212.736 35.066 212.736 36.194C212.736 37.31 212.556 38.234 212.196 38.966C211.836 39.686 211.338 40.226 210.702 40.586C210.066 40.946 209.334 41.126 208.506 41.126ZM208.776 39.2C209.316 39.2 209.796 39.08 210.216 38.84C210.648 38.6 210.99 38.252 211.242 37.796C211.506 37.34 211.638 36.806 211.638 36.194C211.638 35.57 211.506 35.036 211.242 34.592C210.99 34.136 210.648 33.788 210.216 33.548C209.796 33.308 209.316 33.188 208.776 33.188C208.236 33.188 207.75 33.308 207.318 33.548C206.898 33.788 206.556 34.136 206.292 34.592C206.04 35.036 205.914 35.57 205.914 36.194C205.914 36.806 206.04 37.34 206.292 37.796C206.556 38.252 206.898 38.6 207.318 38.84C207.75 39.08 208.236 39.2 208.776 39.2ZM211.692 41V38.732L211.782 36.176L211.602 33.62V27.644H213.834V41H211.692ZM221.77 41V27.644H224.02V41H221.77ZM226.973 41V31.388H229.223V41H226.973ZM228.107 29.804C227.687 29.804 227.339 29.672 227.063 29.408C226.799 29.144 226.667 28.826 226.667 28.454C226.667 28.07 226.799 27.752 227.063 27.5C227.339 27.236 227.687 27.104 228.107 27.104C228.527 27.104 228.869 27.23 229.133 27.482C229.409 27.722 229.547 28.028 229.547 28.4C229.547 28.796 229.415 29.132 229.151 29.408C228.887 29.672 228.539 29.804 228.107 29.804ZM235.146 41.126C234.342 41.126 233.568 41.024 232.824 40.82C232.092 40.604 231.51 40.346 231.078 40.046L231.942 38.336C232.374 38.612 232.89 38.84 233.49 39.02C234.09 39.2 234.69 39.29 235.29 39.29C235.998 39.29 236.508 39.194 236.82 39.002C237.144 38.81 237.306 38.552 237.306 38.228C237.306 37.964 237.198 37.766 236.982 37.634C236.766 37.49 236.484 37.382 236.136 37.31C235.788 37.238 235.398 37.172 234.966 37.112C234.546 37.052 234.12 36.974 233.688 36.878C233.268 36.77 232.884 36.62 232.536 36.428C232.188 36.224 231.906 35.954 231.69 35.618C231.474 35.282 231.366 34.838 231.366 34.286C231.366 33.674 231.54 33.146 231.888 32.702C232.236 32.246 232.722 31.898 233.346 31.658C233.982 31.406 234.732 31.28 235.596 31.28C236.244 31.28 236.898 31.352 237.558 31.496C238.218 31.64 238.764 31.844 239.196 32.108L238.332 33.818C237.876 33.542 237.414 33.356 236.946 33.26C236.49 33.152 236.034 33.098 235.578 33.098C234.894 33.098 234.384 33.2 234.048 33.404C233.724 33.608 233.562 33.866 233.562 34.178C233.562 34.466 233.67 34.682 233.886 34.826C234.102 34.97 234.384 35.084 234.732 35.168C235.08 35.252 235.464 35.324 235.884 35.384C236.316 35.432 236.742 35.51 237.162 35.618C237.582 35.726 237.966 35.876 238.314 36.068C238.674 36.248 238.962 36.506 239.178 36.842C239.394 37.178 239.502 37.616 239.502 38.156C239.502 38.756 239.322 39.278 238.962 39.722C238.614 40.166 238.116 40.514 237.468 40.766C236.82 41.006 236.046 41.126 235.146 41.126ZM245.058 41.126C244.002 41.126 243.186 40.856 242.61 40.316C242.034 39.764 241.746 38.954 241.746 37.886V29.264H243.996V37.832C243.996 38.288 244.11 38.642 244.338 38.894C244.578 39.146 244.908 39.272 245.328 39.272C245.832 39.272 246.252 39.14 246.588 38.876L247.218 40.478C246.954 40.694 246.63 40.856 246.246 40.964C245.862 41.072 245.466 41.126 245.058 41.126ZM240.162 33.26V31.46H246.57V33.26H240.162Z" fill="#141414"/>
<rect x="73" y="117" width="38" height="38" rx="19" fill="white"/>
<path d="M90.0774 136.112C90.664 136.379 91.112 136.741 91.4214 137.2C91.7414 137.648 91.9014 138.176 91.9014 138.784C91.9014 139.467 91.7094 140.064 91.3254 140.576C90.952 141.088 90.4187 141.483 89.7254 141.76C89.032 142.027 88.2267 142.16 87.3094 142.16C86.392 142.16 85.5867 142.027 84.8934 141.76C84.2107 141.483 83.6827 141.088 83.3094 140.576C82.936 140.064 82.7494 139.467 82.7494 138.784C82.7494 138.176 82.904 137.648 83.2134 137.2C83.5227 136.741 83.9654 136.379 84.5414 136.112C84.0934 135.867 83.7467 135.547 83.5014 135.152C83.2667 134.747 83.1494 134.283 83.1494 133.76C83.1494 133.131 83.32 132.581 83.6614 132.112C84.0134 131.643 84.504 131.28 85.1334 131.024C85.7627 130.768 86.488 130.64 87.3094 130.64C88.1414 130.64 88.872 130.768 89.5014 131.024C90.1307 131.28 90.6214 131.643 90.9734 132.112C91.3254 132.581 91.5014 133.131 91.5014 133.76C91.5014 134.283 91.3787 134.741 91.1334 135.136C90.888 135.531 90.536 135.856 90.0774 136.112ZM87.3094 132.272C86.6587 132.272 86.1414 132.411 85.7574 132.688C85.384 132.965 85.1974 133.355 85.1974 133.856C85.1974 134.336 85.384 134.72 85.7574 135.008C86.1414 135.285 86.6587 135.424 87.3094 135.424C87.9707 135.424 88.4934 135.285 88.8774 135.008C89.2614 134.72 89.4534 134.336 89.4534 133.856C89.4534 133.355 89.256 132.965 88.8614 132.688C88.4774 132.411 87.96 132.272 87.3094 132.272ZM87.3094 140.528C88.0774 140.528 88.6854 140.368 89.1334 140.048C89.5814 139.728 89.8054 139.285 89.8054 138.72C89.8054 138.165 89.5814 137.728 89.1334 137.408C88.6854 137.088 88.0774 136.928 87.3094 136.928C86.5414 136.928 85.9387 137.088 85.5014 137.408C85.064 137.728 84.8454 138.165 84.8454 138.72C84.8454 139.285 85.064 139.728 85.5014 140.048C85.9387 140.368 86.5414 140.528 87.3094 140.528ZM96.7549 135.136C98.3335 135.136 99.5015 135.445 100.259 136.064C101.016 136.672 101.395 137.504 101.395 138.56C101.395 139.232 101.23 139.84 100.899 140.384C100.568 140.928 100.072 141.36 99.4109 141.68C98.7495 142 97.9335 142.16 96.9629 142.16C96.1629 142.16 95.3895 142.048 94.6429 141.824C93.8962 141.589 93.2669 141.269 92.7549 140.864L93.6349 139.248C94.0509 139.589 94.5469 139.861 95.1229 140.064C95.7095 140.256 96.3122 140.352 96.9309 140.352C97.6669 140.352 98.2429 140.203 98.6589 139.904C99.0855 139.595 99.2989 139.173 99.2989 138.64C99.2989 138.064 99.0695 137.632 98.6109 137.344C98.1629 137.045 97.3895 136.896 96.2909 136.896H93.5869L94.1629 130.8H100.739V132.544H95.9229L95.6829 135.136H96.7549Z" fill="#3D3D3D"/>
<rect x="73" y="117" width="38" height="38" rx="19" stroke="#0032FF" stroke-width="2"/>
<path d="M91.9991 178.096C91.1351 178.096 90.3618 177.867 89.6791 177.408C89.0071 176.949 88.4791 176.293 88.0951 175.44C87.7218 174.576 87.5351 173.563 87.5351 172.4C87.5351 171.237 87.7218 170.229 88.0951 169.376C88.4791 168.512 89.0071 167.851 89.6791 167.392C90.3618 166.933 91.1351 166.704 91.9991 166.704C92.8631 166.704 93.6311 166.933 94.3031 167.392C94.9858 167.851 95.5191 168.512 95.9031 169.376C96.2871 170.229 96.4791 171.237 96.4791 172.4C96.4791 173.563 96.2871 174.576 95.9031 175.44C95.5191 176.293 94.9858 176.949 94.3031 177.408C93.6311 177.867 92.8631 178.096 91.9991 178.096ZM91.9991 177.04C92.6498 177.04 93.2205 176.859 93.7111 176.496C94.2125 176.133 94.6018 175.605 94.8791 174.912C95.1565 174.219 95.2951 173.381 95.2951 172.4C95.2951 171.419 95.1565 170.581 94.8791 169.888C94.6018 169.195 94.2125 168.667 93.7111 168.304C93.2205 167.941 92.6498 167.76 91.9991 167.76C91.3485 167.76 90.7725 167.941 90.2711 168.304C89.7805 168.667 89.3965 169.195 89.1191 169.888C88.8418 170.581 88.7031 171.419 88.7031 172.4C88.7031 173.381 88.8418 174.219 89.1191 174.912C89.3965 175.605 89.7805 176.133 90.2711 176.496C90.7725 176.859 91.3485 177.04 91.9991 177.04Z" fill="#3D3D3D"/>
<path fill-rule="evenodd" clip-rule="evenodd" d="M125.293 128.293C125.683 127.902 126.317 127.902 126.707 128.293L134.414 136L126.707 143.707C126.317 144.098 125.683 144.098 125.293 143.707C124.902 143.317 124.902 142.683 125.293 142.293L131.586 136L125.293 129.707C124.902 129.317 124.902 128.683 125.293 128.293Z" fill="#0032FF"/>
<rect x="145" y="117" width="38" height="38" rx="19" fill="white"/>
<path d="M160.873 130.8V142H158.793V132.544H156.425V130.8H160.873ZM167.863 135.424C168.897 135.552 169.687 135.904 170.231 136.48C170.775 137.056 171.047 137.776 171.047 138.64C171.047 139.291 170.881 139.883 170.551 140.416C170.22 140.949 169.719 141.376 169.047 141.696C168.385 142.005 167.575 142.16 166.615 142.16C165.815 142.16 165.041 142.048 164.295 141.824C163.559 141.589 162.929 141.269 162.407 140.864L163.303 139.248C163.708 139.589 164.199 139.861 164.775 140.064C165.361 140.256 165.964 140.352 166.583 140.352C167.319 140.352 167.895 140.203 168.311 139.904C168.737 139.595 168.951 139.179 168.951 138.656C168.951 138.133 168.748 137.728 168.343 137.44C167.948 137.141 167.34 136.992 166.519 136.992H165.495V135.568L168.039 132.544H162.951V130.8H170.583V132.192L167.863 135.424Z" fill="#3D3D3D"/>
<rect x="145" y="117" width="38" height="38" rx="19" stroke="#0032FF" stroke-width="2"/>
<path d="M165.045 166.8V178H163.893V167.824H161.253V166.8H165.045Z" fill="#3D3D3D"/>
<path fill-rule="evenodd" clip-rule="evenodd" d="M197.293 128.293C197.683 127.902 198.317 127.902 198.707 128.293L206.414 136L198.707 143.707C198.317 144.098 197.683 144.098 197.293 143.707C196.902 143.317 196.902 142.683 197.293 142.293L203.586 136L197.293 129.707C196.902 129.317 196.902 128.683 197.293 128.293Z" fill="#0032FF"/>
<rect x="217" y="117" width="38" height="38" rx="19" fill="white"/>
<path d="M231.386 135.424C232.421 135.552 233.21 135.904 233.754 136.48C234.298 137.056 234.57 137.776 234.57 138.64C234.57 139.291 234.405 139.883 234.074 140.416C233.743 140.949 233.242 141.376 232.57 141.696C231.909 142.005 231.098 142.16 230.138 142.16C229.338 142.16 228.565 142.048 227.818 141.824C227.082 141.589 226.453 141.269 225.93 140.864L226.826 139.248C227.231 139.589 227.722 139.861 228.298 140.064C228.885 140.256 229.487 140.352 230.106 140.352C230.842 140.352 231.418 140.203 231.834 139.904C232.261 139.595 232.474 139.179 232.474 138.656C232.474 138.133 232.271 137.728 231.866 137.44C231.471 137.141 230.863 136.992 230.042 136.992H229.018V135.568L231.562 132.544H226.474V130.8H234.106V132.192L231.386 135.424ZM245.915 139.456H243.931V142H241.915V139.456H235.771V138.016L241.291 130.8H243.515L238.315 137.696H241.979V135.44H243.931V137.696H245.915V139.456Z" fill="#3D3D3D"/>
<rect x="217" y="117" width="38" height="38" rx="19" stroke="#0032FF" stroke-width="2"/>
<path d="M239.933 176.976V178H232.077V177.184L236.733 172.624C237.32 172.048 237.714 171.552 237.917 171.136C238.13 170.709 238.237 170.283 238.237 169.856C238.237 169.195 238.008 168.683 237.549 168.32C237.101 167.947 236.456 167.76 235.613 167.76C234.301 167.76 233.282 168.176 232.557 169.008L231.741 168.304C232.178 167.792 232.733 167.397 233.405 167.12C234.088 166.843 234.856 166.704 235.709 166.704C236.85 166.704 237.752 166.976 238.413 167.52C239.085 168.053 239.421 168.789 239.421 169.728C239.421 170.304 239.293 170.859 239.037 171.392C238.781 171.925 238.296 172.539 237.581 173.232L233.773 176.976H239.933Z" fill="#3D3D3D"/>
<path fill-rule="evenodd" clip-rule="evenodd" d="M269.293 128.293C269.683 127.902 270.317 127.902 270.707 128.293L278.414 136L270.707 143.707C270.317 144.098 269.683 144.098 269.293 143.707C268.902 143.317 268.902 142.683 269.293 142.293L275.586 136L269.293 129.707C268.902 129.317 268.902 128.683 269.293 128.293Z" fill="#0032FF"/>
<rect x="289" y="117" width="38" height="38" rx="19" fill="white"/>
<path d="M309.529 130.8V142H307.449V132.544H305.081V130.8H309.529Z" fill="#3D3D3D"/>
<rect x="289" y="117" width="38" height="38" rx="19" stroke="#0032FF" stroke-width="2"/>
<path d="M308.124 171.6C309.298 171.664 310.188 171.984 310.796 172.56C311.415 173.125 311.724 173.867 311.724 174.784C311.724 175.424 311.57 175.995 311.26 176.496C310.951 176.987 310.492 177.376 309.884 177.664C309.276 177.952 308.535 178.096 307.66 178.096C306.85 178.096 306.082 177.968 305.356 177.712C304.642 177.445 304.066 177.093 303.628 176.656L304.188 175.744C304.562 176.128 305.058 176.443 305.676 176.688C306.295 176.923 306.956 177.04 307.66 177.04C308.578 177.04 309.287 176.843 309.788 176.448C310.29 176.043 310.54 175.488 310.54 174.784C310.54 174.091 310.29 173.547 309.788 173.152C309.287 172.757 308.53 172.56 307.516 172.56H306.716V171.712L309.82 167.824H304.092V166.8H311.292V167.616L308.124 171.6Z" fill="#3D3D3D"/>
<rect x="224" y="80" width="24" height="24" rx="12" fill="#D252E1"/>
<path d="M238.749 92.112C239.336 92.3787 239.784 92.7413 240.093 93.2C240.413 93.648 240.573 94.176 240.573 94.784C240.573 95.4667 240.381 96.064 239.997 96.576C239.624 97.088 239.091 97.4827 238.397 97.76C237.704 98.0267 236.899 98.16 235.981 98.16C235.064 98.16 234.259 98.0267 233.565 97.76C232.883 97.4827 232.355 97.088 231.981 96.576C231.608 96.064 231.421 95.4667 231.421 94.784C231.421 94.176 231.576 93.648 231.885 93.2C232.195 92.7413 232.637 92.3787 233.213 92.112C232.765 91.8667 232.419 91.5467 232.173 91.152C231.939 90.7467 231.821 90.2827 231.821 89.76C231.821 89.1307 231.992 88.5813 232.333 88.112C232.685 87.6427 233.176 87.28 233.805 87.024C234.435 86.768 235.16 86.64 235.981 86.64C236.813 86.64 237.544 86.768 238.173 87.024C238.803 87.28 239.293 87.6427 239.645 88.112C239.997 88.5813 240.173 89.1307 240.173 89.76C240.173 90.2827 240.051 90.7413 239.805 91.136C239.56 91.5307 239.208 91.856 238.749 92.112ZM235.981 88.272C235.331 88.272 234.813 88.4107 234.429 88.688C234.056 88.9653 233.869 89.3547 233.869 89.856C233.869 90.336 234.056 90.72 234.429 91.008C234.813 91.2853 235.331 91.424 235.981 91.424C236.643 91.424 237.165 91.2853 237.549 91.008C237.933 90.72 238.125 90.336 238.125 89.856C238.125 89.3547 237.928 88.9653 237.533 88.688C237.149 88.4107 236.632 88.272 235.981 88.272ZM235.981 96.528C236.749 96.528 237.357 96.368 237.805 96.048C238.253 95.728 238.477 95.2853 238.477 94.72C238.477 94.1653 238.253 93.728 237.805 93.408C237.357 93.088 236.749 92.928 235.981 92.928C235.213 92.928 234.611 93.088 234.173 93.408C233.736 93.728 233.517 94.1653 233.517 94.72C233.517 95.2853 233.736 95.728 234.173 96.048C234.611 96.368 235.213 96.528 235.981 96.528Z" fill="white"/>
<rect x="0.5" y="0.5" width="399" height="219" rx="19.5" stroke="#141414"/>
</svg>
