<svg width="400" height="220" viewBox="0 0 400 220" fill="none" xmlns="http://www.w3.org/2000/svg">
<rect x="0.5" y="0.5" width="399" height="219" rx="19.5" fill="url(#paint0_linear_154_3210)"/>
<path d="M179.741 41.18C178.757 41.18 177.815 41.042 176.915 40.766C176.015 40.478 175.301 40.112 174.773 39.668L175.583 37.85C176.087 38.246 176.711 38.576 177.455 38.84C178.199 39.104 178.961 39.236 179.741 39.236C180.401 39.236 180.935 39.164 181.343 39.02C181.751 38.876 182.051 38.684 182.243 38.444C182.435 38.192 182.531 37.91 182.531 37.598C182.531 37.214 182.393 36.908 182.117 36.68C181.841 36.44 181.481 36.254 181.037 36.122C180.605 35.978 180.119 35.846 179.579 35.726C179.051 35.606 178.517 35.468 177.977 35.312C177.449 35.144 176.963 34.934 176.519 34.682C176.087 34.418 175.733 34.07 175.457 33.638C175.181 33.206 175.043 32.654 175.043 31.982C175.043 31.298 175.223 30.674 175.583 30.11C175.955 29.534 176.513 29.078 177.257 28.742C178.013 28.394 178.967 28.22 180.119 28.22C180.875 28.22 181.625 28.316 182.369 28.508C183.113 28.7 183.761 28.976 184.313 29.336L183.575 31.154C183.011 30.818 182.429 30.572 181.829 30.416C181.229 30.248 180.653 30.164 180.101 30.164C179.453 30.164 178.925 30.242 178.517 30.398C178.121 30.554 177.827 30.758 177.635 31.01C177.455 31.262 177.365 31.55 177.365 31.874C177.365 32.258 177.497 32.57 177.761 32.81C178.037 33.038 178.391 33.218 178.823 33.35C179.267 33.482 179.759 33.614 180.299 33.746C180.839 33.866 181.373 34.004 181.901 34.16C182.441 34.316 182.927 34.52 183.359 34.772C183.803 35.024 184.157 35.366 184.421 35.798C184.697 36.23 184.835 36.776 184.835 37.436C184.835 38.108 184.649 38.732 184.277 39.308C183.917 39.872 183.359 40.328 182.603 40.676C181.847 41.012 180.893 41.18 179.741 41.18ZM190.557 41.126C189.501 41.126 188.685 40.856 188.109 40.316C187.533 39.764 187.245 38.954 187.245 37.886V29.264H189.495V37.832C189.495 38.288 189.609 38.642 189.837 38.894C190.077 39.146 190.407 39.272 190.827 39.272C191.331 39.272 191.751 39.14 192.087 38.876L192.717 40.478C192.453 40.694 192.129 40.856 191.745 40.964C191.361 41.072 190.965 41.126 190.557 41.126ZM185.661 33.26V31.46H192.069V33.26H185.661ZM200.49 41V39.056L200.364 38.642V35.24C200.364 34.58 200.166 34.07 199.77 33.71C199.374 33.338 198.774 33.152 197.97 33.152C197.43 33.152 196.896 33.236 196.368 33.404C195.852 33.572 195.414 33.806 195.054 34.106L194.172 32.468C194.688 32.072 195.3 31.778 196.008 31.586C196.728 31.382 197.472 31.28 198.24 31.28C199.632 31.28 200.706 31.616 201.462 32.288C202.23 32.948 202.614 33.974 202.614 35.366V41H200.49ZM197.466 41.126C196.746 41.126 196.116 41.006 195.576 40.766C195.036 40.514 194.616 40.172 194.316 39.74C194.028 39.296 193.884 38.798 193.884 38.246C193.884 37.706 194.01 37.22 194.262 36.788C194.526 36.356 194.952 36.014 195.54 35.762C196.128 35.51 196.908 35.384 197.88 35.384H200.67V36.878H198.042C197.274 36.878 196.758 37.004 196.494 37.256C196.23 37.496 196.098 37.796 196.098 38.156C196.098 38.564 196.26 38.888 196.584 39.128C196.908 39.368 197.358 39.488 197.934 39.488C198.486 39.488 198.978 39.362 199.41 39.11C199.854 38.858 200.172 38.486 200.364 37.994L200.742 39.344C200.526 39.908 200.136 40.346 199.572 40.658C199.02 40.97 198.318 41.126 197.466 41.126ZM209.929 41.126C208.921 41.126 208.021 40.916 207.229 40.496C206.449 40.064 205.837 39.476 205.393 38.732C204.949 37.988 204.727 37.142 204.727 36.194C204.727 35.234 204.949 34.388 205.393 33.656C205.837 32.912 206.449 32.33 207.229 31.91C208.021 31.49 208.921 31.28 209.929 31.28C210.865 31.28 211.687 31.472 212.395 31.856C213.115 32.228 213.661 32.78 214.033 33.512L212.305 34.52C212.017 34.064 211.663 33.728 211.243 33.512C210.835 33.296 210.391 33.188 209.911 33.188C209.359 33.188 208.861 33.308 208.417 33.548C207.973 33.788 207.625 34.136 207.373 34.592C207.121 35.036 206.995 35.57 206.995 36.194C206.995 36.818 207.121 37.358 207.373 37.814C207.625 38.258 207.973 38.6 208.417 38.84C208.861 39.08 209.359 39.2 209.911 39.2C210.391 39.2 210.835 39.092 211.243 38.876C211.663 38.66 212.017 38.324 212.305 37.868L214.033 38.876C213.661 39.596 213.115 40.154 212.395 40.55C211.687 40.934 210.865 41.126 209.929 41.126ZM217.726 38.858L217.78 36.032L222.802 31.388H225.502L221.236 35.672L220.048 36.662L217.726 38.858ZM215.89 41V27.644H218.14V41H215.89ZM223.144 41L219.634 36.662L221.056 34.862L225.88 41H223.144Z" fill="#141414"/>
<rect x="69" y="105" width="38" height="38" rx="19" fill="white"/>
<path d="M87.4491 130V119.6L88.3611 120.544H85.0811V118.8H89.5291V130H87.4491Z" fill="#0032FF"/>
<rect x="69" y="105" width="38" height="38" rx="19" stroke="#0032FF" stroke-width="2"/>
<path d="M87.9991 166.096C87.1351 166.096 86.3671 165.872 85.6951 165.424C85.0231 164.965 84.4951 164.315 84.1111 163.472C83.7271 162.619 83.5351 161.595 83.5351 160.4C83.5351 159.205 83.7271 158.187 84.1111 157.344C84.4951 156.491 85.0231 155.84 85.6951 155.392C86.3671 154.933 87.1351 154.704 87.9991 154.704C88.8631 154.704 89.6311 154.933 90.3031 155.392C90.9751 155.84 91.5031 156.491 91.8871 157.344C92.2818 158.187 92.4791 159.205 92.4791 160.4C92.4791 161.595 92.2818 162.619 91.8871 163.472C91.5031 164.315 90.9751 164.965 90.3031 165.424C89.6311 165.872 88.8631 166.096 87.9991 166.096ZM87.9991 165.04C88.6605 165.04 89.2365 164.864 89.7271 164.512C90.2178 164.149 90.6018 163.627 90.8791 162.944C91.1565 162.251 91.2951 161.403 91.2951 160.4C91.2951 159.397 91.1565 158.555 90.8791 157.872C90.6018 157.179 90.2178 156.656 89.7271 156.304C89.2365 155.941 88.6605 155.76 87.9991 155.76C87.3591 155.76 86.7885 155.941 86.2871 156.304C85.7858 156.656 85.3965 157.179 85.1191 157.872C84.8418 158.555 84.7031 159.397 84.7031 160.4C84.7031 161.403 84.8418 162.251 85.1191 162.944C85.3965 163.627 85.7858 164.149 86.2871 164.512C86.7885 164.864 87.3591 165.04 87.9991 165.04Z" fill="#3D3D3D"/>
<rect x="125" y="105" width="38" height="38" rx="19" fill="white"/>
<path d="M139.904 130V128.608L144.352 124.384C144.725 124.032 145.002 123.723 145.184 123.456C145.365 123.189 145.482 122.944 145.536 122.72C145.6 122.485 145.632 122.267 145.632 122.064C145.632 121.552 145.456 121.157 145.104 120.88C144.752 120.592 144.234 120.448 143.552 120.448C143.008 120.448 142.512 120.544 142.064 120.736C141.626 120.928 141.248 121.221 140.928 121.616L139.472 120.496C139.909 119.909 140.496 119.456 141.232 119.136C141.978 118.805 142.81 118.64 143.728 118.64C144.538 118.64 145.242 118.773 145.84 119.04C146.448 119.296 146.912 119.664 147.232 120.144C147.562 120.624 147.728 121.195 147.728 121.856C147.728 122.219 147.68 122.581 147.584 122.944C147.488 123.296 147.306 123.669 147.04 124.064C146.773 124.459 146.384 124.901 145.872 125.392L142.048 129.024L141.616 128.24H148.16V130H139.904Z" fill="#0032FF"/>
<rect x="125" y="105" width="38" height="38" rx="19" stroke="#0032FF" stroke-width="2"/>
<path d="M143.893 166V155.28L144.405 155.824H141.253V154.8H145.045V166H143.893Z" fill="#3D3D3D"/>
<rect x="181" y="105" width="38" height="38" rx="19" fill="white"/>
<path d="M199.568 130.16C198.778 130.16 198.005 130.048 197.248 129.824C196.501 129.589 195.872 129.269 195.36 128.864L196.256 127.248C196.661 127.579 197.152 127.845 197.728 128.048C198.304 128.251 198.906 128.352 199.536 128.352C200.282 128.352 200.864 128.203 201.28 127.904C201.696 127.595 201.904 127.179 201.904 126.656C201.904 126.144 201.712 125.739 201.328 125.44C200.944 125.141 200.325 124.992 199.472 124.992H198.448V123.568L201.648 119.76L201.92 120.544H195.904V118.8H203.536V120.192L200.336 124L199.248 123.36H199.872C201.248 123.36 202.277 123.669 202.96 124.288C203.653 124.896 204 125.68 204 126.64C204 127.269 203.84 127.851 203.52 128.384C203.2 128.917 202.709 129.349 202.048 129.68C201.397 130 200.57 130.16 199.568 130.16Z" fill="#0032FF"/>
<rect x="181" y="105" width="38" height="38" rx="19" stroke="#0032FF" stroke-width="2"/>
<path d="M196.077 166V165.184L200.733 160.624C201.16 160.208 201.48 159.845 201.693 159.536C201.906 159.216 202.05 158.917 202.125 158.64C202.2 158.363 202.237 158.101 202.237 157.856C202.237 157.205 202.013 156.693 201.565 156.32C201.128 155.947 200.477 155.76 199.613 155.76C198.952 155.76 198.365 155.861 197.853 156.064C197.352 156.267 196.92 156.581 196.557 157.008L195.741 156.304C196.178 155.792 196.738 155.397 197.421 155.12C198.104 154.843 198.866 154.704 199.709 154.704C200.466 154.704 201.122 154.827 201.677 155.072C202.232 155.307 202.658 155.653 202.957 156.112C203.266 156.571 203.421 157.109 203.421 157.728C203.421 158.091 203.368 158.448 203.261 158.8C203.165 159.152 202.984 159.525 202.717 159.92C202.461 160.304 202.082 160.741 201.581 161.232L197.309 165.424L196.989 164.976H203.933V166H196.077Z" fill="#3D3D3D"/>
<rect x="237" y="105" width="38" height="38" rx="19" fill="white"/>
<path d="M251.114 127.456V126.016L256.634 118.8H258.858L253.418 126.016L252.378 125.696H261.258V127.456H251.114ZM257.258 130V127.456L257.322 125.696V123.44H259.274V130H257.258Z" fill="#0032FF"/>
<rect x="237" y="105" width="38" height="38" rx="19" stroke="#0032FF" stroke-width="2"/>
<path d="M255.66 166.096C254.85 166.096 254.082 165.968 253.356 165.712C252.642 165.445 252.066 165.093 251.628 164.656L252.188 163.744C252.551 164.117 253.036 164.427 253.644 164.672C254.263 164.917 254.935 165.04 255.66 165.04C256.588 165.04 257.298 164.837 257.788 164.432C258.29 164.027 258.54 163.483 258.54 162.8C258.54 162.117 258.295 161.573 257.804 161.168C257.324 160.763 256.562 160.56 255.516 160.56H254.716V159.712L258.172 155.376L258.332 155.824H252.092V154.8H259.292V155.616L255.836 159.952L255.276 159.584H255.708C257.052 159.584 258.055 159.883 258.716 160.48C259.388 161.077 259.724 161.845 259.724 162.784C259.724 163.413 259.575 163.979 259.276 164.48C258.978 164.981 258.524 165.376 257.916 165.664C257.319 165.952 256.567 166.096 255.66 166.096Z" fill="#3D3D3D"/>
<path d="M302.665 94.096C301.812 94.096 301.15 93.8667 300.681 93.408C300.212 92.9493 299.977 92.2933 299.977 91.44V83.664H301.513V91.376C301.513 91.8347 301.625 92.1867 301.849 92.432C302.084 92.6773 302.414 92.8 302.841 92.8C303.321 92.8 303.721 92.6667 304.041 92.4L304.521 93.504C304.286 93.7067 304.004 93.856 303.673 93.952C303.353 94.048 303.017 94.096 302.665 94.096ZM298.537 86.784V85.52H303.945V86.784H298.537ZM309.729 94.096C308.875 94.096 308.118 93.9093 307.457 93.536C306.795 93.1627 306.273 92.6507 305.889 92C305.505 91.3387 305.313 90.592 305.313 89.76C305.313 88.9173 305.505 88.1707 305.889 87.52C306.273 86.8693 306.795 86.3627 307.457 86C308.118 85.6267 308.875 85.44 309.729 85.44C310.571 85.44 311.323 85.6267 311.985 86C312.657 86.3627 313.179 86.8693 313.553 87.52C313.937 88.16 314.129 88.9067 314.129 89.76C314.129 90.6027 313.937 91.3493 313.553 92C313.179 92.6507 312.657 93.1627 311.985 93.536C311.323 93.9093 310.571 94.096 309.729 94.096ZM309.729 92.752C310.273 92.752 310.758 92.6293 311.185 92.384C311.622 92.1387 311.963 91.792 312.209 91.344C312.454 90.8853 312.577 90.3573 312.577 89.76C312.577 89.152 312.454 88.6293 312.209 88.192C311.963 87.744 311.622 87.3973 311.185 87.152C310.758 86.9067 310.273 86.784 309.729 86.784C309.185 86.784 308.699 86.9067 308.273 87.152C307.846 87.3973 307.505 87.744 307.249 88.192C306.993 88.6293 306.865 89.152 306.865 89.76C306.865 90.3573 306.993 90.8853 307.249 91.344C307.505 91.792 307.846 92.1387 308.273 92.384C308.699 92.6293 309.185 92.752 309.729 92.752ZM320.749 94.096C320.045 94.096 319.4 93.936 318.813 93.616C318.237 93.2853 317.773 92.8 317.421 92.16C317.08 91.52 316.909 90.72 316.909 89.76C316.909 88.8 317.074 88 317.405 87.36C317.746 86.72 318.205 86.24 318.781 85.92C319.368 85.6 320.024 85.44 320.749 85.44C321.581 85.44 322.317 85.6213 322.957 85.984C323.597 86.3467 324.104 86.8533 324.477 87.504C324.85 88.144 325.037 88.896 325.037 89.76C325.037 90.624 324.85 91.3813 324.477 92.032C324.104 92.6827 323.597 93.1893 322.957 93.552C322.317 93.9147 321.581 94.096 320.749 94.096ZM316.253 97.104V85.52H317.725V87.808L317.629 89.776L317.789 91.744V97.104H316.253ZM320.621 92.752C321.165 92.752 321.65 92.6293 322.077 92.384C322.514 92.1387 322.856 91.792 323.101 91.344C323.357 90.8853 323.485 90.3573 323.485 89.76C323.485 89.152 323.357 88.6293 323.101 88.192C322.856 87.744 322.514 87.3973 322.077 87.152C321.65 86.9067 321.165 86.784 320.621 86.784C320.088 86.784 319.602 86.9067 319.165 87.152C318.738 87.3973 318.397 87.744 318.141 88.192C317.896 88.6293 317.773 89.152 317.773 89.76C317.773 90.3573 317.896 90.8853 318.141 91.344C318.397 91.792 318.738 92.1387 319.165 92.384C319.602 92.6293 320.088 92.752 320.621 92.752Z" fill="#3D3D3D"/>
<rect x="293" y="105" width="38" height="38" rx="19" fill="white"/>
<path d="M311.744 130.16C310.955 130.16 310.181 130.048 309.424 129.824C308.677 129.589 308.048 129.269 307.536 128.864L308.416 127.248C308.821 127.579 309.312 127.845 309.888 128.048C310.475 128.251 311.083 128.352 311.712 128.352C312.448 128.352 313.024 128.197 313.44 127.888C313.867 127.579 314.08 127.163 314.08 126.64C314.08 126.288 313.989 125.979 313.808 125.712C313.637 125.445 313.328 125.243 312.88 125.104C312.443 124.965 311.84 124.896 311.072 124.896H308.368L308.944 118.8H315.52V120.544H309.712L310.8 119.552L310.368 124.112L309.28 123.136H311.536C312.645 123.136 313.536 123.285 314.208 123.584C314.891 123.872 315.387 124.277 315.696 124.8C316.016 125.312 316.176 125.899 316.176 126.56C316.176 127.211 316.016 127.808 315.696 128.352C315.376 128.896 314.885 129.333 314.224 129.664C313.573 129.995 312.747 130.16 311.744 130.16Z" fill="#0032FF"/>
<rect x="293" y="105" width="38" height="38" rx="19" stroke="#0032FF" stroke-width="2"/>
<path d="M307.351 163.056V162.224L313.287 154.8H314.567L308.679 162.224L308.055 162.032H317.063V163.056H307.351ZM313.671 166V163.056L313.703 162.032V159.44H314.823V166H313.671Z" fill="#3D3D3D"/>
<rect x="0.5" y="0.5" width="399" height="219" rx="19.5" stroke="#141414"/>
<defs>
<linearGradient id="paint0_linear_154_3210" x1="479" y1="-48" x2="-80.5" y2="263.5" gradientUnits="userSpaceOnUse">
<stop stop-color="#82CEFF"/>
<stop offset="1" stop-color="#FF6B9B"/>
</linearGradient>
</defs>
</svg>
