<svg width="400" height="220" viewBox="0 0 400 220" fill="none" xmlns="http://www.w3.org/2000/svg">
<rect x="0.5" y="0.5" width="399" height="219" rx="19.5" fill="white"/>
<path d="M179.741 41.18C178.757 41.18 177.815 41.042 176.915 40.766C176.015 40.478 175.301 40.112 174.773 39.668L175.583 37.85C176.087 38.246 176.711 38.576 177.455 38.84C178.199 39.104 178.961 39.236 179.741 39.236C180.401 39.236 180.935 39.164 181.343 39.02C181.751 38.876 182.051 38.684 182.243 38.444C182.435 38.192 182.531 37.91 182.531 37.598C182.531 37.214 182.393 36.908 182.117 36.68C181.841 36.44 181.481 36.254 181.037 36.122C180.605 35.978 180.119 35.846 179.579 35.726C179.051 35.606 178.517 35.468 177.977 35.312C177.449 35.144 176.963 34.934 176.519 34.682C176.087 34.418 175.733 34.07 175.457 33.638C175.181 33.206 175.043 32.654 175.043 31.982C175.043 31.298 175.223 30.674 175.583 30.11C175.955 29.534 176.513 29.078 177.257 28.742C178.013 28.394 178.967 28.22 180.119 28.22C180.875 28.22 181.625 28.316 182.369 28.508C183.113 28.7 183.761 28.976 184.313 29.336L183.575 31.154C183.011 30.818 182.429 30.572 181.829 30.416C181.229 30.248 180.653 30.164 180.101 30.164C179.453 30.164 178.925 30.242 178.517 30.398C178.121 30.554 177.827 30.758 177.635 31.01C177.455 31.262 177.365 31.55 177.365 31.874C177.365 32.258 177.497 32.57 177.761 32.81C178.037 33.038 178.391 33.218 178.823 33.35C179.267 33.482 179.759 33.614 180.299 33.746C180.839 33.866 181.373 34.004 181.901 34.16C182.441 34.316 182.927 34.52 183.359 34.772C183.803 35.024 184.157 35.366 184.421 35.798C184.697 36.23 184.835 36.776 184.835 37.436C184.835 38.108 184.649 38.732 184.277 39.308C183.917 39.872 183.359 40.328 182.603 40.676C181.847 41.012 180.893 41.18 179.741 41.18ZM190.557 41.126C189.501 41.126 188.685 40.856 188.109 40.316C187.533 39.764 187.245 38.954 187.245 37.886V29.264H189.495V37.832C189.495 38.288 189.609 38.642 189.837 38.894C190.077 39.146 190.407 39.272 190.827 39.272C191.331 39.272 191.751 39.14 192.087 38.876L192.717 40.478C192.453 40.694 192.129 40.856 191.745 40.964C191.361 41.072 190.965 41.126 190.557 41.126ZM185.661 33.26V31.46H192.069V33.26H185.661ZM200.49 41V39.056L200.364 38.642V35.24C200.364 34.58 200.166 34.07 199.77 33.71C199.374 33.338 198.774 33.152 197.97 33.152C197.43 33.152 196.896 33.236 196.368 33.404C195.852 33.572 195.414 33.806 195.054 34.106L194.172 32.468C194.688 32.072 195.3 31.778 196.008 31.586C196.728 31.382 197.472 31.28 198.24 31.28C199.632 31.28 200.706 31.616 201.462 32.288C202.23 32.948 202.614 33.974 202.614 35.366V41H200.49ZM197.466 41.126C196.746 41.126 196.116 41.006 195.576 40.766C195.036 40.514 194.616 40.172 194.316 39.74C194.028 39.296 193.884 38.798 193.884 38.246C193.884 37.706 194.01 37.22 194.262 36.788C194.526 36.356 194.952 36.014 195.54 35.762C196.128 35.51 196.908 35.384 197.88 35.384H200.67V36.878H198.042C197.274 36.878 196.758 37.004 196.494 37.256C196.23 37.496 196.098 37.796 196.098 38.156C196.098 38.564 196.26 38.888 196.584 39.128C196.908 39.368 197.358 39.488 197.934 39.488C198.486 39.488 198.978 39.362 199.41 39.11C199.854 38.858 200.172 38.486 200.364 37.994L200.742 39.344C200.526 39.908 200.136 40.346 199.572 40.658C199.02 40.97 198.318 41.126 197.466 41.126ZM209.929 41.126C208.921 41.126 208.021 40.916 207.229 40.496C206.449 40.064 205.837 39.476 205.393 38.732C204.949 37.988 204.727 37.142 204.727 36.194C204.727 35.234 204.949 34.388 205.393 33.656C205.837 32.912 206.449 32.33 207.229 31.91C208.021 31.49 208.921 31.28 209.929 31.28C210.865 31.28 211.687 31.472 212.395 31.856C213.115 32.228 213.661 32.78 214.033 33.512L212.305 34.52C212.017 34.064 211.663 33.728 211.243 33.512C210.835 33.296 210.391 33.188 209.911 33.188C209.359 33.188 208.861 33.308 208.417 33.548C207.973 33.788 207.625 34.136 207.373 34.592C207.121 35.036 206.995 35.57 206.995 36.194C206.995 36.818 207.121 37.358 207.373 37.814C207.625 38.258 207.973 38.6 208.417 38.84C208.861 39.08 209.359 39.2 209.911 39.2C210.391 39.2 210.835 39.092 211.243 38.876C211.663 38.66 212.017 38.324 212.305 37.868L214.033 38.876C213.661 39.596 213.115 40.154 212.395 40.55C211.687 40.934 210.865 41.126 209.929 41.126ZM217.726 38.858L217.78 36.032L222.802 31.388H225.502L221.236 35.672L220.048 36.662L217.726 38.858ZM215.89 41V27.644H218.14V41H215.89ZM223.144 41L219.634 36.662L221.056 34.862L225.88 41H223.144Z" fill="#141414"/>
<path d="M89.5291 118.8V130H87.4491V120.544H85.0811V118.8H89.5291Z" fill="#3D3D3D"/>
<rect x="69" y="105" width="38" height="38" rx="19" stroke="#0032FF" stroke-width="2"/>
<path d="M87.9991 166.096C87.1351 166.096 86.3618 165.867 85.6791 165.408C85.0071 164.949 84.4791 164.293 84.0951 163.44C83.7218 162.576 83.5351 161.563 83.5351 160.4C83.5351 159.237 83.7218 158.229 84.0951 157.376C84.4791 156.512 85.0071 155.851 85.6791 155.392C86.3618 154.933 87.1351 154.704 87.9991 154.704C88.8631 154.704 89.6311 154.933 90.3031 155.392C90.9858 155.851 91.5191 156.512 91.9031 157.376C92.2871 158.229 92.4791 159.237 92.4791 160.4C92.4791 161.563 92.2871 162.576 91.9031 163.44C91.5191 164.293 90.9858 164.949 90.3031 165.408C89.6311 165.867 88.8631 166.096 87.9991 166.096ZM87.9991 165.04C88.6498 165.04 89.2205 164.859 89.7111 164.496C90.2125 164.133 90.6018 163.605 90.8791 162.912C91.1565 162.219 91.2951 161.381 91.2951 160.4C91.2951 159.419 91.1565 158.581 90.8791 157.888C90.6018 157.195 90.2125 156.667 89.7111 156.304C89.2205 155.941 88.6498 155.76 87.9991 155.76C87.3485 155.76 86.7725 155.941 86.2711 156.304C85.7805 156.667 85.3965 157.195 85.1191 157.888C84.8418 158.581 84.7031 159.419 84.7031 160.4C84.7031 161.381 84.8418 162.219 85.1191 162.912C85.3965 163.605 85.7805 164.133 86.2711 164.496C86.7725 164.859 87.3485 165.04 87.9991 165.04Z" fill="#3D3D3D"/>
<path d="M148.16 128.24V130H139.904V128.608L144.352 124.384C144.853 123.904 145.189 123.488 145.36 123.136C145.541 122.773 145.632 122.416 145.632 122.064C145.632 121.541 145.456 121.141 145.104 120.864C144.752 120.587 144.234 120.448 143.552 120.448C142.41 120.448 141.536 120.837 140.928 121.616L139.472 120.496C139.909 119.909 140.496 119.456 141.232 119.136C141.978 118.805 142.81 118.64 143.728 118.64C144.944 118.64 145.914 118.928 146.64 119.504C147.365 120.08 147.728 120.864 147.728 121.856C147.728 122.464 147.6 123.035 147.344 123.568C147.088 124.101 146.597 124.709 145.872 125.392L142.88 128.24H148.16Z" fill="#3D3D3D"/>
<rect x="125" y="105" width="38" height="38" rx="19" stroke="#0032FF" stroke-width="2"/>
<path d="M145.045 154.8V166H143.893V155.824H141.253V154.8H145.045Z" fill="#3D3D3D"/>
<path d="M200.816 123.424C201.85 123.552 202.64 123.904 203.184 124.48C203.728 125.056 204 125.776 204 126.64C204 127.291 203.834 127.883 203.504 128.416C203.173 128.949 202.672 129.376 202 129.696C201.338 130.005 200.528 130.16 199.568 130.16C198.768 130.16 197.994 130.048 197.248 129.824C196.512 129.589 195.882 129.269 195.36 128.864L196.256 127.248C196.661 127.589 197.152 127.861 197.728 128.064C198.314 128.256 198.917 128.352 199.536 128.352C200.272 128.352 200.848 128.203 201.264 127.904C201.69 127.595 201.904 127.179 201.904 126.656C201.904 126.133 201.701 125.728 201.296 125.44C200.901 125.141 200.293 124.992 199.472 124.992H198.448V123.568L200.992 120.544H195.904V118.8H203.536V120.192L200.816 123.424Z" fill="#3D3D3D"/>
<rect x="181" y="105" width="38" height="38" rx="19" stroke="#0032FF" stroke-width="2"/>
<path d="M203.933 164.976V166H196.077V165.184L200.733 160.624C201.32 160.048 201.714 159.552 201.917 159.136C202.13 158.709 202.237 158.283 202.237 157.856C202.237 157.195 202.008 156.683 201.549 156.32C201.101 155.947 200.456 155.76 199.613 155.76C198.301 155.76 197.282 156.176 196.557 157.008L195.741 156.304C196.178 155.792 196.733 155.397 197.405 155.12C198.088 154.843 198.856 154.704 199.709 154.704C200.85 154.704 201.752 154.976 202.413 155.52C203.085 156.053 203.421 156.789 203.421 157.728C203.421 158.304 203.293 158.859 203.037 159.392C202.781 159.925 202.296 160.539 201.581 161.232L197.773 164.976H203.933Z" fill="#3D3D3D"/>
<path d="M261.258 127.456H259.274V130H257.258V127.456H251.114V126.016L256.634 118.8H258.858L253.658 125.696H257.322V123.44H259.274V125.696H261.258V127.456Z" fill="#3D3D3D"/>
<rect x="237" y="105" width="38" height="38" rx="19" stroke="#0032FF" stroke-width="2"/>
<path d="M256.124 159.6C257.298 159.664 258.188 159.984 258.796 160.56C259.415 161.125 259.724 161.867 259.724 162.784C259.724 163.424 259.57 163.995 259.26 164.496C258.951 164.987 258.492 165.376 257.884 165.664C257.276 165.952 256.535 166.096 255.66 166.096C254.85 166.096 254.082 165.968 253.356 165.712C252.642 165.445 252.066 165.093 251.628 164.656L252.188 163.744C252.562 164.128 253.058 164.443 253.676 164.688C254.295 164.923 254.956 165.04 255.66 165.04C256.578 165.04 257.287 164.843 257.788 164.448C258.29 164.043 258.54 163.488 258.54 162.784C258.54 162.091 258.29 161.547 257.788 161.152C257.287 160.757 256.53 160.56 255.516 160.56H254.716V159.712L257.82 155.824H252.092V154.8H259.292V155.616L256.124 159.6Z" fill="#3D3D3D"/>
<path d="M304.521 93.504C304.297 93.696 304.02 93.8453 303.689 93.952C303.358 94.048 303.017 94.096 302.665 94.096C301.812 94.096 301.15 93.8667 300.681 93.408C300.212 92.9493 299.977 92.2933 299.977 91.44V86.784H298.537V85.52H299.977V83.664H301.513V85.52H303.945V86.784H301.513V91.376C301.513 91.8347 301.625 92.1867 301.849 92.432C302.084 92.6773 302.414 92.8 302.841 92.8C303.31 92.8 303.71 92.6667 304.041 92.4L304.521 93.504ZM309.729 94.096C308.886 94.096 308.129 93.9093 307.457 93.536C306.785 93.1627 306.257 92.6507 305.873 92C305.499 91.3387 305.313 90.592 305.313 89.76C305.313 88.928 305.499 88.1867 305.873 87.536C306.257 86.8747 306.785 86.3627 307.457 86C308.129 85.6267 308.886 85.44 309.729 85.44C310.571 85.44 311.323 85.6267 311.985 86C312.657 86.3627 313.179 86.8747 313.553 87.536C313.937 88.1867 314.129 88.928 314.129 89.76C314.129 90.592 313.937 91.3387 313.553 92C313.179 92.6507 312.657 93.1627 311.985 93.536C311.323 93.9093 310.571 94.096 309.729 94.096ZM309.729 92.752C310.273 92.752 310.758 92.6293 311.185 92.384C311.622 92.128 311.963 91.776 312.209 91.328C312.454 90.8693 312.577 90.3467 312.577 89.76C312.577 89.1733 312.454 88.656 312.209 88.208C311.963 87.7493 311.622 87.3973 311.185 87.152C310.758 86.9067 310.273 86.784 309.729 86.784C309.185 86.784 308.694 86.9067 308.257 87.152C307.83 87.3973 307.489 87.7493 307.233 88.208C306.987 88.656 306.865 89.1733 306.865 89.76C306.865 90.3467 306.987 90.8693 307.233 91.328C307.489 91.776 307.83 92.128 308.257 92.384C308.694 92.6293 309.185 92.752 309.729 92.752ZM320.749 85.44C321.57 85.44 322.306 85.6213 322.957 85.984C323.608 86.3467 324.114 86.8533 324.477 87.504C324.85 88.1547 325.037 88.9067 325.037 89.76C325.037 90.6133 324.85 91.3707 324.477 92.032C324.114 92.6827 323.608 93.1893 322.957 93.552C322.306 93.9147 321.57 94.096 320.749 94.096C320.141 94.096 319.581 93.9787 319.069 93.744C318.568 93.5093 318.141 93.168 317.789 92.72V97.104H316.253V85.52H317.725V86.864C318.066 86.3947 318.498 86.0427 319.021 85.808C319.544 85.5627 320.12 85.44 320.749 85.44ZM320.621 92.752C321.165 92.752 321.65 92.6293 322.077 92.384C322.514 92.128 322.856 91.776 323.101 91.328C323.357 90.8693 323.485 90.3467 323.485 89.76C323.485 89.1733 323.357 88.656 323.101 88.208C322.856 87.7493 322.514 87.3973 322.077 87.152C321.65 86.9067 321.165 86.784 320.621 86.784C320.088 86.784 319.602 86.912 319.165 87.168C318.738 87.4133 318.397 87.76 318.141 88.208C317.896 88.656 317.773 89.1733 317.773 89.76C317.773 90.3467 317.896 90.8693 318.141 91.328C318.386 91.776 318.728 92.128 319.165 92.384C319.602 92.6293 320.088 92.752 320.621 92.752Z" fill="#3D3D3D"/>
<path d="M311.536 123.136C313.115 123.136 314.283 123.445 315.04 124.064C315.797 124.672 316.176 125.504 316.176 126.56C316.176 127.232 316.011 127.84 315.68 128.384C315.349 128.928 314.853 129.36 314.192 129.68C313.531 130 312.715 130.16 311.744 130.16C310.944 130.16 310.171 130.048 309.424 129.824C308.677 129.589 308.048 129.269 307.536 128.864L308.416 127.248C308.832 127.589 309.328 127.861 309.904 128.064C310.491 128.256 311.093 128.352 311.712 128.352C312.448 128.352 313.024 128.203 313.44 127.904C313.867 127.595 314.08 127.173 314.08 126.64C314.08 126.064 313.851 125.632 313.392 125.344C312.944 125.045 312.171 124.896 311.072 124.896H308.368L308.944 118.8H315.52V120.544H310.704L310.464 123.136H311.536Z" fill="#3D3D3D"/>
<rect x="293" y="105" width="38" height="38" rx="19" stroke="#0032FF" stroke-width="2"/>
<path d="M317.063 163.056H314.823V166H313.671V163.056H307.351V162.224L313.287 154.8H314.567L308.839 162.032H313.703V159.44H314.823V162.032H317.063V163.056Z" fill="#3D3D3D"/>
<rect x="0.5" y="0.5" width="399" height="219" rx="19.5" stroke="#141414"/>
</svg>
