<svg width="400" height="220" viewBox="0 0 400 220" fill="none" xmlns="http://www.w3.org/2000/svg">
<rect x="0.5" y="0.5" width="399" height="219" rx="19.5" fill="white"/>
<path d="M92.9794 114.8V126H90.8994V121.2H85.1074V126H83.0274V114.8H85.1074V119.424H90.8994V114.8H92.9794Z" fill="#3D3D3D"/>
<rect x="69" y="101" width="38" height="38" rx="19" stroke="#0032FF" stroke-width="2"/>
<path d="M148.545 124.256V126H140.145V114.8H148.321V116.544H142.225V119.456H147.633V121.168H142.225V124.256H148.545Z" fill="#3D3D3D"/>
<rect x="125" y="101" width="38" height="38" rx="19" stroke="#0032FF" stroke-width="2"/>
<path d="M196.715 114.8H198.795V124.24H204.651V126H196.715V114.8Z" fill="#3D3D3D"/>
<rect x="181" y="101" width="38" height="38" rx="19" stroke="#0032FF" stroke-width="2"/>
<path d="M252.715 114.8H254.795V124.24H260.651V126H252.715V114.8Z" fill="#3D3D3D"/>
<rect x="237" y="101" width="38" height="38" rx="19" stroke="#0032FF" stroke-width="2"/>
<path d="M312.002 126.16C310.86 126.16 309.831 125.915 308.914 125.424C307.996 124.923 307.276 124.235 306.754 123.36C306.231 122.475 305.97 121.488 305.97 120.4C305.97 119.312 306.231 118.331 306.754 117.456C307.276 116.571 307.996 115.883 308.914 115.392C309.831 114.891 310.86 114.64 312.002 114.64C313.143 114.64 314.172 114.891 315.09 115.392C316.007 115.883 316.727 116.565 317.25 117.44C317.772 118.315 318.034 119.301 318.034 120.4C318.034 121.499 317.772 122.485 317.25 123.36C316.727 124.235 316.007 124.923 315.09 125.424C314.172 125.915 313.143 126.16 312.002 126.16ZM312.002 124.336C312.748 124.336 313.42 124.171 314.018 123.84C314.615 123.499 315.084 123.029 315.426 122.432C315.767 121.824 315.938 121.147 315.938 120.4C315.938 119.653 315.767 118.981 315.426 118.384C315.084 117.776 314.615 117.307 314.018 116.976C313.42 116.635 312.748 116.464 312.002 116.464C311.255 116.464 310.583 116.635 309.986 116.976C309.388 117.307 308.919 117.776 308.578 118.384C308.236 118.981 308.066 119.653 308.066 120.4C308.066 121.147 308.236 121.824 308.578 122.432C308.919 123.029 309.388 123.499 309.986 123.84C310.583 124.171 311.255 124.336 312.002 124.336Z" fill="#3D3D3D"/>
<rect x="293" y="101" width="38" height="38" rx="19" stroke="#0032FF" stroke-width="2"/>
<path d="M177.868 41.18C176.884 41.18 175.942 41.042 175.042 40.766C174.142 40.478 173.428 40.112 172.9 39.668L173.71 37.85C174.214 38.246 174.838 38.576 175.582 38.84C176.326 39.104 177.088 39.236 177.868 39.236C178.528 39.236 179.062 39.164 179.47 39.02C179.878 38.876 180.178 38.684 180.37 38.444C180.562 38.192 180.658 37.91 180.658 37.598C180.658 37.214 180.52 36.908 180.244 36.68C179.968 36.44 179.608 36.254 179.164 36.122C178.732 35.978 178.246 35.846 177.706 35.726C177.178 35.606 176.644 35.468 176.104 35.312C175.576 35.144 175.09 34.934 174.646 34.682C174.214 34.418 173.86 34.07 173.584 33.638C173.308 33.206 173.17 32.654 173.17 31.982C173.17 31.298 173.35 30.674 173.71 30.11C174.082 29.534 174.64 29.078 175.384 28.742C176.14 28.394 177.094 28.22 178.246 28.22C179.002 28.22 179.752 28.316 180.496 28.508C181.24 28.7 181.888 28.976 182.44 29.336L181.702 31.154C181.138 30.818 180.556 30.572 179.956 30.416C179.356 30.248 178.78 30.164 178.228 30.164C177.58 30.164 177.052 30.242 176.644 30.398C176.248 30.554 175.954 30.758 175.762 31.01C175.582 31.262 175.492 31.55 175.492 31.874C175.492 32.258 175.624 32.57 175.888 32.81C176.164 33.038 176.518 33.218 176.95 33.35C177.394 33.482 177.886 33.614 178.426 33.746C178.966 33.866 179.5 34.004 180.028 34.16C180.568 34.316 181.054 34.52 181.486 34.772C181.93 35.024 182.284 35.366 182.548 35.798C182.824 36.23 182.962 36.776 182.962 37.436C182.962 38.108 182.776 38.732 182.404 39.308C182.044 39.872 181.486 40.328 180.73 40.676C179.974 41.012 179.02 41.18 177.868 41.18ZM188.684 41.126C187.628 41.126 186.812 40.856 186.236 40.316C185.66 39.764 185.372 38.954 185.372 37.886V29.264H187.622V37.832C187.622 38.288 187.736 38.642 187.964 38.894C188.204 39.146 188.534 39.272 188.954 39.272C189.458 39.272 189.878 39.14 190.214 38.876L190.844 40.478C190.58 40.694 190.256 40.856 189.872 40.964C189.488 41.072 189.092 41.126 188.684 41.126ZM183.788 33.26V31.46H190.196V33.26H183.788ZM192.695 41V31.388H194.837V34.034L194.585 33.26C194.873 32.612 195.323 32.12 195.935 31.784C196.559 31.448 197.333 31.28 198.257 31.28V33.422C198.161 33.398 198.071 33.386 197.987 33.386C197.903 33.374 197.819 33.368 197.735 33.368C196.883 33.368 196.205 33.62 195.701 34.124C195.197 34.616 194.945 35.354 194.945 36.338V41H192.695ZM200.165 41V31.388H202.415V41H200.165ZM201.299 29.804C200.879 29.804 200.531 29.672 200.255 29.408C199.991 29.144 199.859 28.826 199.859 28.454C199.859 28.07 199.991 27.752 200.255 27.5C200.531 27.236 200.879 27.104 201.299 27.104C201.719 27.104 202.061 27.23 202.325 27.482C202.601 27.722 202.739 28.028 202.739 28.4C202.739 28.796 202.607 29.132 202.343 29.408C202.079 29.672 201.731 29.804 201.299 29.804ZM210.823 31.28C211.591 31.28 212.275 31.43 212.875 31.73C213.487 32.03 213.967 32.492 214.315 33.116C214.663 33.728 214.837 34.52 214.837 35.492V41H212.587V35.78C212.587 34.928 212.383 34.292 211.975 33.872C211.579 33.452 211.021 33.242 210.301 33.242C209.773 33.242 209.305 33.35 208.897 33.566C208.489 33.782 208.171 34.106 207.943 34.538C207.727 34.958 207.619 35.492 207.619 36.14V41H205.369V31.388H207.511V33.98L207.133 33.188C207.469 32.576 207.955 32.108 208.591 31.784C209.239 31.448 209.983 31.28 210.823 31.28ZM222.064 44.618C221.176 44.618 220.306 44.498 219.454 44.258C218.614 44.03 217.924 43.694 217.384 43.25L218.392 41.558C218.812 41.906 219.34 42.182 219.976 42.386C220.624 42.602 221.278 42.71 221.938 42.71C222.994 42.71 223.768 42.464 224.26 41.972C224.752 41.492 224.998 40.766 224.998 39.794V38.084L225.178 35.906L225.106 33.728V31.388H227.248V39.542C227.248 41.282 226.804 42.56 225.916 43.376C225.028 44.204 223.744 44.618 222.064 44.618ZM221.776 40.568C220.864 40.568 220.036 40.376 219.292 39.992C218.56 39.596 217.978 39.05 217.546 38.354C217.126 37.658 216.916 36.842 216.916 35.906C216.916 34.982 217.126 34.172 217.546 33.476C217.978 32.78 218.56 32.24 219.292 31.856C220.036 31.472 220.864 31.28 221.776 31.28C222.592 31.28 223.324 31.442 223.972 31.766C224.62 32.09 225.136 32.594 225.52 33.278C225.916 33.962 226.114 34.838 226.114 35.906C226.114 36.974 225.916 37.856 225.52 38.552C225.136 39.236 224.62 39.746 223.972 40.082C223.324 40.406 222.592 40.568 221.776 40.568ZM222.118 38.66C222.682 38.66 223.186 38.546 223.63 38.318C224.074 38.078 224.416 37.754 224.656 37.346C224.908 36.926 225.034 36.446 225.034 35.906C225.034 35.366 224.908 34.892 224.656 34.484C224.416 34.064 224.074 33.746 223.63 33.53C223.186 33.302 222.682 33.188 222.118 33.188C221.554 33.188 221.044 33.302 220.588 33.53C220.144 33.746 219.796 34.064 219.544 34.484C219.304 34.892 219.184 35.366 219.184 35.906C219.184 36.446 219.304 36.926 219.544 37.346C219.796 37.754 220.144 38.078 220.588 38.318C221.044 38.546 221.554 38.66 222.118 38.66Z" fill="#141414"/>
<rect x="0.5" y="0.5" width="399" height="219" rx="19.5" stroke="#141414"/>
</svg>
