<svg width="400" height="220" viewBox="0 0 400 220" fill="none" xmlns="http://www.w3.org/2000/svg">
<rect x="0.5" y="0.5" width="399" height="219" rx="19.5" fill="url(#paint0_linear_154_3194)"/>
<rect x="93" y="142" width="29" height="32" fill="white"/>
<path d="M102.559 196.128C101.77 196.128 101.002 196.005 100.255 195.76C99.5192 195.515 98.9165 195.184 98.4472 194.768L99.1832 193.504C99.5565 193.856 100.042 194.144 100.639 194.368C101.237 194.592 101.877 194.704 102.559 194.704C103.391 194.704 104.037 194.528 104.495 194.176C104.965 193.813 105.199 193.328 105.199 192.72C105.199 192.133 104.975 191.664 104.527 191.312C104.09 190.949 103.391 190.768 102.431 190.768H101.535V189.648L104.863 185.552L105.087 186.192H98.9592V184.8H106.351V185.888L103.039 189.968L102.207 189.472H102.735C104.09 189.472 105.103 189.776 105.775 190.384C106.458 190.992 106.799 191.765 106.799 192.704C106.799 193.333 106.645 193.909 106.335 194.432C106.026 194.955 105.557 195.371 104.927 195.68C104.309 195.979 103.519 196.128 102.559 196.128ZM108.037 196V194.912L112.597 190.512C113.003 190.128 113.301 189.792 113.493 189.504C113.696 189.205 113.829 188.933 113.893 188.688C113.968 188.432 114.005 188.187 114.005 187.952C114.005 187.376 113.803 186.923 113.397 186.592C112.992 186.261 112.4 186.096 111.621 186.096C111.024 186.096 110.485 186.197 110.005 186.4C109.525 186.592 109.109 186.896 108.757 187.312L107.669 186.368C108.096 185.824 108.667 185.408 109.381 185.12C110.107 184.821 110.901 184.672 111.765 184.672C112.544 184.672 113.221 184.8 113.797 185.056C114.373 185.301 114.816 185.659 115.125 186.128C115.445 186.597 115.605 187.152 115.605 187.792C115.605 188.155 115.557 188.512 115.461 188.864C115.365 189.216 115.184 189.589 114.917 189.984C114.651 190.379 114.267 190.821 113.765 191.312L109.701 195.232L109.317 194.608H116.085V196H108.037Z" fill="white"/>
<rect x="130" y="110" width="29" height="64" fill="#D252E1"/>
<path d="M139.683 196.128C138.691 196.128 137.843 195.909 137.139 195.472C136.435 195.035 135.896 194.405 135.523 193.584C135.16 192.752 134.979 191.739 134.979 190.544C134.979 189.275 135.203 188.203 135.651 187.328C136.099 186.453 136.723 185.792 137.523 185.344C138.323 184.896 139.24 184.672 140.275 184.672C140.808 184.672 141.315 184.725 141.795 184.832C142.286 184.939 142.707 185.104 143.059 185.328L142.451 186.576C142.163 186.373 141.832 186.235 141.459 186.16C141.096 186.085 140.712 186.048 140.307 186.048C139.166 186.048 138.259 186.405 137.587 187.12C136.915 187.824 136.579 188.875 136.579 190.272C136.579 190.496 136.59 190.763 136.611 191.072C136.632 191.381 136.686 191.685 136.771 191.984L136.227 191.44C136.387 190.949 136.638 190.539 136.979 190.208C137.331 189.867 137.747 189.616 138.227 189.456C138.718 189.285 139.246 189.2 139.811 189.2C140.558 189.2 141.219 189.339 141.795 189.616C142.371 189.893 142.824 190.288 143.155 190.8C143.486 191.301 143.651 191.899 143.651 192.592C143.651 193.307 143.475 193.931 143.123 194.464C142.771 194.997 142.296 195.408 141.699 195.696C141.102 195.984 140.43 196.128 139.683 196.128ZM139.619 194.832C140.11 194.832 140.536 194.741 140.899 194.56C141.272 194.379 141.566 194.128 141.779 193.808C141.992 193.477 142.099 193.093 142.099 192.656C142.099 191.995 141.87 191.472 141.411 191.088C140.952 190.693 140.328 190.496 139.539 190.496C139.027 190.496 138.579 190.592 138.195 190.784C137.811 190.976 137.507 191.237 137.283 191.568C137.07 191.888 136.963 192.256 136.963 192.672C136.963 193.056 137.064 193.413 137.267 193.744C137.47 194.064 137.768 194.325 138.163 194.528C138.558 194.731 139.043 194.832 139.619 194.832ZM144.694 193.248V192.128L150.422 184.8H152.15L146.47 192.128L145.654 191.872H154.598V193.248H144.694ZM150.918 196V193.248L150.966 191.872V189.44H152.47V196H150.918Z" fill="white"/>
<rect x="167" y="92" width="29" height="82" fill="#D252E1"/>
<path d="M176.894 196.128C175.987 196.128 175.203 195.995 174.542 195.728C173.88 195.461 173.368 195.083 173.006 194.592C172.643 194.091 172.462 193.504 172.462 192.832C172.462 192.171 172.632 191.611 172.974 191.152C173.326 190.683 173.832 190.331 174.494 190.096C175.155 189.851 175.955 189.728 176.894 189.728C177.832 189.728 178.632 189.851 179.294 190.096C179.966 190.331 180.478 190.683 180.83 191.152C181.182 191.621 181.358 192.181 181.358 192.832C181.358 193.504 181.176 194.091 180.814 194.592C180.451 195.083 179.934 195.461 179.262 195.728C178.59 195.995 177.8 196.128 176.894 196.128ZM176.894 194.832C177.79 194.832 178.488 194.651 178.99 194.288C179.502 193.915 179.758 193.413 179.758 192.784C179.758 192.165 179.502 191.68 178.99 191.328C178.488 190.965 177.79 190.784 176.894 190.784C176.008 190.784 175.315 190.965 174.814 191.328C174.312 191.68 174.062 192.165 174.062 192.784C174.062 193.413 174.312 193.915 174.814 194.288C175.315 194.651 176.008 194.832 176.894 194.832ZM176.894 190.592C176.04 190.592 175.315 190.48 174.718 190.256C174.12 190.021 173.662 189.691 173.342 189.264C173.022 188.827 172.862 188.309 172.862 187.712C172.862 187.083 173.027 186.544 173.358 186.096C173.699 185.637 174.174 185.285 174.782 185.04C175.39 184.795 176.094 184.672 176.894 184.672C177.704 184.672 178.414 184.795 179.022 185.04C179.63 185.285 180.104 185.637 180.446 186.096C180.787 186.544 180.958 187.083 180.958 187.712C180.958 188.309 180.798 188.827 180.478 189.264C180.158 189.691 179.694 190.021 179.086 190.256C178.478 190.48 177.747 190.592 176.894 190.592ZM176.894 189.568C177.672 189.568 178.28 189.408 178.718 189.088C179.166 188.768 179.39 188.331 179.39 187.776C179.39 187.211 179.16 186.768 178.702 186.448C178.243 186.128 177.64 185.968 176.894 185.968C176.147 185.968 175.55 186.128 175.102 186.448C174.664 186.768 174.446 187.211 174.446 187.776C174.446 188.331 174.659 188.768 175.086 189.088C175.523 189.408 176.126 189.568 176.894 189.568ZM182.647 196V194.912L187.207 190.512C187.612 190.128 187.911 189.792 188.103 189.504C188.305 189.205 188.439 188.933 188.503 188.688C188.577 188.432 188.615 188.187 188.615 187.952C188.615 187.376 188.412 186.923 188.007 186.592C187.601 186.261 187.009 186.096 186.231 186.096C185.633 186.096 185.095 186.197 184.615 186.4C184.135 186.592 183.719 186.896 183.367 187.312L182.279 186.368C182.705 185.824 183.276 185.408 183.991 185.12C184.716 184.821 185.511 184.672 186.375 184.672C187.153 184.672 187.831 184.8 188.407 185.056C188.983 185.301 189.425 185.659 189.735 186.128C190.055 186.597 190.215 187.152 190.215 187.792C190.215 188.155 190.167 188.512 190.071 188.864C189.975 189.216 189.793 189.589 189.527 189.984C189.26 190.379 188.876 190.821 188.375 191.312L184.311 195.232L183.927 194.608H190.695V196H182.647Z" fill="white"/>
<rect x="204" y="78" width="29" height="96" fill="white"/>
<path d="M213.025 184.672C214.038 184.672 214.892 184.891 215.585 185.328C216.289 185.765 216.822 186.4 217.185 187.232C217.548 188.053 217.729 189.061 217.729 190.256C217.729 191.525 217.505 192.597 217.057 193.472C216.609 194.347 215.99 195.008 215.201 195.456C214.412 195.904 213.489 196.128 212.433 196.128C211.91 196.128 211.404 196.075 210.913 195.968C210.433 195.861 210.012 195.696 209.649 195.472L210.257 194.224C210.556 194.416 210.886 194.555 211.249 194.64C211.622 194.715 212.012 194.752 212.417 194.752C213.548 194.752 214.449 194.4 215.121 193.696C215.793 192.981 216.129 191.925 216.129 190.528C216.129 190.304 216.118 190.037 216.097 189.728C216.076 189.419 216.028 189.115 215.953 188.816L216.481 189.36C216.332 189.851 216.081 190.267 215.729 190.608C215.388 190.939 214.972 191.189 214.481 191.36C214.001 191.52 213.473 191.6 212.897 191.6C212.161 191.6 211.505 191.461 210.929 191.184C210.353 190.907 209.9 190.517 209.569 190.016C209.238 189.504 209.073 188.901 209.073 188.208C209.073 187.483 209.244 186.859 209.585 186.336C209.937 185.803 210.412 185.392 211.009 185.104C211.617 184.816 212.289 184.672 213.025 184.672ZM213.089 185.968C212.609 185.968 212.182 186.059 211.809 186.24C211.436 186.421 211.142 186.672 210.929 186.992C210.726 187.312 210.625 187.696 210.625 188.144C210.625 188.805 210.854 189.333 211.313 189.728C211.772 190.112 212.39 190.304 213.169 190.304C213.681 190.304 214.129 190.208 214.513 190.016C214.908 189.824 215.212 189.563 215.425 189.232C215.649 188.901 215.761 188.533 215.761 188.128C215.761 187.733 215.66 187.376 215.457 187.056C215.254 186.736 214.956 186.475 214.561 186.272C214.166 186.069 213.676 185.968 213.089 185.968ZM223.972 196.128C222.98 196.128 222.132 195.909 221.428 195.472C220.724 195.035 220.185 194.405 219.812 193.584C219.449 192.752 219.268 191.739 219.268 190.544C219.268 189.275 219.492 188.203 219.94 187.328C220.388 186.453 221.012 185.792 221.812 185.344C222.612 184.896 223.529 184.672 224.564 184.672C225.097 184.672 225.604 184.725 226.084 184.832C226.575 184.939 226.996 185.104 227.348 185.328L226.74 186.576C226.452 186.373 226.121 186.235 225.748 186.16C225.385 186.085 225.001 186.048 224.596 186.048C223.455 186.048 222.548 186.405 221.876 187.12C221.204 187.824 220.868 188.875 220.868 190.272C220.868 190.496 220.879 190.763 220.9 191.072C220.921 191.381 220.975 191.685 221.06 191.984L220.516 191.44C220.676 190.949 220.927 190.539 221.268 190.208C221.62 189.867 222.036 189.616 222.516 189.456C223.007 189.285 223.535 189.2 224.1 189.2C224.847 189.2 225.508 189.339 226.084 189.616C226.66 189.893 227.113 190.288 227.444 190.8C227.775 191.301 227.94 191.899 227.94 192.592C227.94 193.307 227.764 193.931 227.412 194.464C227.06 194.997 226.585 195.408 225.988 195.696C225.391 195.984 224.719 196.128 223.972 196.128ZM223.908 194.832C224.399 194.832 224.825 194.741 225.188 194.56C225.561 194.379 225.855 194.128 226.068 193.808C226.281 193.477 226.388 193.093 226.388 192.656C226.388 191.995 226.159 191.472 225.7 191.088C225.241 190.693 224.617 190.496 223.828 190.496C223.316 190.496 222.868 190.592 222.484 190.784C222.1 190.976 221.796 191.237 221.572 191.568C221.359 191.888 221.252 192.256 221.252 192.672C221.252 193.056 221.353 193.413 221.556 193.744C221.759 194.064 222.057 194.325 222.452 194.528C222.847 194.731 223.332 194.832 223.908 194.832Z" fill="white"/>
<rect x="241" y="86" width="29" height="88" fill="white"/>
<path d="M250.339 196.128C249.432 196.128 248.648 195.995 247.987 195.728C247.326 195.461 246.814 195.083 246.451 194.592C246.088 194.091 245.907 193.504 245.907 192.832C245.907 192.171 246.078 191.611 246.419 191.152C246.771 190.683 247.278 190.331 247.939 190.096C248.6 189.851 249.4 189.728 250.339 189.728C251.278 189.728 252.078 189.851 252.739 190.096C253.411 190.331 253.923 190.683 254.275 191.152C254.627 191.621 254.803 192.181 254.803 192.832C254.803 193.504 254.622 194.091 254.259 194.592C253.896 195.083 253.379 195.461 252.707 195.728C252.035 195.995 251.246 196.128 250.339 196.128ZM250.339 194.832C251.235 194.832 251.934 194.651 252.435 194.288C252.947 193.915 253.203 193.413 253.203 192.784C253.203 192.165 252.947 191.68 252.435 191.328C251.934 190.965 251.235 190.784 250.339 190.784C249.454 190.784 248.76 190.965 248.259 191.328C247.758 191.68 247.507 192.165 247.507 192.784C247.507 193.413 247.758 193.915 248.259 194.288C248.76 194.651 249.454 194.832 250.339 194.832ZM250.339 190.592C249.486 190.592 248.76 190.48 248.163 190.256C247.566 190.021 247.107 189.691 246.787 189.264C246.467 188.827 246.307 188.309 246.307 187.712C246.307 187.083 246.472 186.544 246.803 186.096C247.144 185.637 247.619 185.285 248.227 185.04C248.835 184.795 249.539 184.672 250.339 184.672C251.15 184.672 251.859 184.795 252.467 185.04C253.075 185.285 253.55 185.637 253.891 186.096C254.232 186.544 254.403 187.083 254.403 187.712C254.403 188.309 254.243 188.827 253.923 189.264C253.603 189.691 253.139 190.021 252.531 190.256C251.923 190.48 251.192 190.592 250.339 190.592ZM250.339 189.568C251.118 189.568 251.726 189.408 252.163 189.088C252.611 188.768 252.835 188.331 252.835 187.776C252.835 187.211 252.606 186.768 252.147 186.448C251.688 186.128 251.086 185.968 250.339 185.968C249.592 185.968 248.995 186.128 248.547 186.448C248.11 186.768 247.891 187.211 247.891 187.776C247.891 188.331 248.104 188.768 248.531 189.088C248.968 189.408 249.571 189.568 250.339 189.568ZM260.636 196.128C259.729 196.128 258.945 195.995 258.284 195.728C257.623 195.461 257.111 195.083 256.748 194.592C256.385 194.091 256.204 193.504 256.204 192.832C256.204 192.171 256.375 191.611 256.716 191.152C257.068 190.683 257.575 190.331 258.236 190.096C258.897 189.851 259.697 189.728 260.636 189.728C261.575 189.728 262.375 189.851 263.036 190.096C263.708 190.331 264.22 190.683 264.572 191.152C264.924 191.621 265.1 192.181 265.1 192.832C265.1 193.504 264.919 194.091 264.556 194.592C264.193 195.083 263.676 195.461 263.004 195.728C262.332 195.995 261.543 196.128 260.636 196.128ZM260.636 194.832C261.532 194.832 262.231 194.651 262.732 194.288C263.244 193.915 263.5 193.413 263.5 192.784C263.5 192.165 263.244 191.68 262.732 191.328C262.231 190.965 261.532 190.784 260.636 190.784C259.751 190.784 259.057 190.965 258.556 191.328C258.055 191.68 257.804 192.165 257.804 192.784C257.804 193.413 258.055 193.915 258.556 194.288C259.057 194.651 259.751 194.832 260.636 194.832ZM260.636 190.592C259.783 190.592 259.057 190.48 258.46 190.256C257.863 190.021 257.404 189.691 257.084 189.264C256.764 188.827 256.604 188.309 256.604 187.712C256.604 187.083 256.769 186.544 257.1 186.096C257.441 185.637 257.916 185.285 258.524 185.04C259.132 184.795 259.836 184.672 260.636 184.672C261.447 184.672 262.156 184.795 262.764 185.04C263.372 185.285 263.847 185.637 264.188 186.096C264.529 186.544 264.7 187.083 264.7 187.712C264.7 188.309 264.54 188.827 264.22 189.264C263.9 189.691 263.436 190.021 262.828 190.256C262.22 190.48 261.489 190.592 260.636 190.592ZM260.636 189.568C261.415 189.568 262.023 189.408 262.46 189.088C262.908 188.768 263.132 188.331 263.132 187.776C263.132 187.211 262.903 186.768 262.444 186.448C261.985 186.128 261.383 185.968 260.636 185.968C259.889 185.968 259.292 186.128 258.844 186.448C258.407 186.768 258.188 187.211 258.188 187.776C258.188 188.331 258.401 188.768 258.828 189.088C259.265 189.408 259.868 189.568 260.636 189.568Z" fill="white"/>
<rect x="278" y="66" width="29" height="108" fill="white"/>
<path d="M281.523 196V185.44L282.211 186.192H278.995V184.8H283.107V196H281.523ZM290.133 196.128C289.258 196.128 288.474 195.904 287.781 195.456C287.098 195.008 286.554 194.357 286.149 193.504C285.754 192.651 285.557 191.616 285.557 190.4C285.557 189.184 285.754 188.149 286.149 187.296C286.554 186.443 287.098 185.792 287.781 185.344C288.474 184.896 289.258 184.672 290.133 184.672C290.997 184.672 291.776 184.896 292.469 185.344C293.162 185.792 293.706 186.443 294.101 187.296C294.496 188.149 294.693 189.184 294.693 190.4C294.693 191.616 294.496 192.651 294.101 193.504C293.706 194.357 293.162 195.008 292.469 195.456C291.776 195.904 290.997 196.128 290.133 196.128ZM290.133 194.704C290.72 194.704 291.232 194.544 291.669 194.224C292.117 193.904 292.464 193.424 292.709 192.784C292.965 192.144 293.093 191.349 293.093 190.4C293.093 189.451 292.965 188.656 292.709 188.016C292.464 187.376 292.117 186.896 291.669 186.576C291.232 186.256 290.72 186.096 290.133 186.096C289.546 186.096 289.029 186.256 288.581 186.576C288.133 186.896 287.781 187.376 287.525 188.016C287.28 188.656 287.157 189.451 287.157 190.4C287.157 191.349 287.28 192.144 287.525 192.784C287.781 193.424 288.133 193.904 288.581 194.224C289.029 194.544 289.546 194.704 290.133 194.704ZM300.805 196.128C299.93 196.128 299.146 195.904 298.453 195.456C297.77 195.008 297.226 194.357 296.821 193.504C296.426 192.651 296.229 191.616 296.229 190.4C296.229 189.184 296.426 188.149 296.821 187.296C297.226 186.443 297.77 185.792 298.453 185.344C299.146 184.896 299.93 184.672 300.805 184.672C301.669 184.672 302.448 184.896 303.141 185.344C303.834 185.792 304.378 186.443 304.773 187.296C305.168 188.149 305.365 189.184 305.365 190.4C305.365 191.616 305.168 192.651 304.773 193.504C304.378 194.357 303.834 195.008 303.141 195.456C302.448 195.904 301.669 196.128 300.805 196.128ZM300.805 194.704C301.392 194.704 301.904 194.544 302.341 194.224C302.789 193.904 303.136 193.424 303.381 192.784C303.637 192.144 303.765 191.349 303.765 190.4C303.765 189.451 303.637 188.656 303.381 188.016C303.136 187.376 302.789 186.896 302.341 186.576C301.904 186.256 301.392 186.096 300.805 186.096C300.218 186.096 299.701 186.256 299.253 186.576C298.805 186.896 298.453 187.376 298.197 188.016C297.952 188.656 297.829 189.451 297.829 190.4C297.829 191.349 297.952 192.144 298.197 192.784C298.453 193.424 298.805 193.904 299.253 194.224C299.701 194.544 300.218 194.704 300.805 194.704Z" fill="white"/>
<path d="M140.293 41L145.963 28.4H148.267L153.955 41H151.507L146.629 29.642H147.565L142.705 41H140.293ZM142.903 38.084L143.533 36.248H150.337L150.967 38.084H142.903ZM155.341 41V31.388H157.483V34.034L157.231 33.26C157.519 32.612 157.969 32.12 158.581 31.784C159.205 31.448 159.979 31.28 160.903 31.28V33.422C160.807 33.398 160.717 33.386 160.633 33.386C160.549 33.374 160.465 33.368 160.381 33.368C159.529 33.368 158.851 33.62 158.347 34.124C157.843 34.616 157.591 35.354 157.591 36.338V41H155.341ZM162.812 41V31.388H164.954V34.034L164.702 33.26C164.99 32.612 165.44 32.12 166.052 31.784C166.676 31.448 167.45 31.28 168.374 31.28V33.422C168.278 33.398 168.188 33.386 168.104 33.386C168.02 33.374 167.936 33.368 167.852 33.368C167 33.368 166.322 33.62 165.818 34.124C165.314 34.616 165.062 35.354 165.062 36.338V41H162.812ZM175.519 41V39.056L175.393 38.642V35.24C175.393 34.58 175.195 34.07 174.799 33.71C174.403 33.338 173.803 33.152 172.999 33.152C172.459 33.152 171.925 33.236 171.397 33.404C170.881 33.572 170.443 33.806 170.083 34.106L169.201 32.468C169.717 32.072 170.329 31.778 171.037 31.586C171.757 31.382 172.501 31.28 173.269 31.28C174.661 31.28 175.735 31.616 176.491 32.288C177.259 32.948 177.643 33.974 177.643 35.366V41H175.519ZM172.495 41.126C171.775 41.126 171.145 41.006 170.605 40.766C170.065 40.514 169.645 40.172 169.345 39.74C169.057 39.296 168.913 38.798 168.913 38.246C168.913 37.706 169.039 37.22 169.291 36.788C169.555 36.356 169.981 36.014 170.569 35.762C171.157 35.51 171.937 35.384 172.909 35.384H175.699V36.878H173.071C172.303 36.878 171.787 37.004 171.523 37.256C171.259 37.496 171.127 37.796 171.127 38.156C171.127 38.564 171.289 38.888 171.613 39.128C171.937 39.368 172.387 39.488 172.963 39.488C173.515 39.488 174.007 39.362 174.439 39.11C174.883 38.858 175.201 38.486 175.393 37.994L175.771 39.344C175.555 39.908 175.165 40.346 174.601 40.658C174.049 40.97 173.347 41.126 172.495 41.126ZM181.147 44.618C180.679 44.618 180.211 44.54 179.743 44.384C179.275 44.228 178.885 44.012 178.573 43.736L179.473 42.08C179.701 42.284 179.959 42.446 180.247 42.566C180.535 42.686 180.829 42.746 181.129 42.746C181.537 42.746 181.867 42.644 182.119 42.44C182.371 42.236 182.605 41.894 182.821 41.414L183.379 40.154L183.559 39.884L187.195 31.388H189.355L184.855 41.774C184.555 42.494 184.219 43.064 183.847 43.484C183.487 43.904 183.079 44.198 182.623 44.366C182.179 44.534 181.687 44.618 181.147 44.618ZM183.127 41.342L178.789 31.388H181.129L184.657 39.686L183.127 41.342ZM198.706 41.126C197.902 41.126 197.128 41.024 196.384 40.82C195.652 40.604 195.07 40.346 194.638 40.046L195.502 38.336C195.934 38.612 196.45 38.84 197.05 39.02C197.65 39.2 198.25 39.29 198.85 39.29C199.558 39.29 200.068 39.194 200.38 39.002C200.704 38.81 200.866 38.552 200.866 38.228C200.866 37.964 200.758 37.766 200.542 37.634C200.326 37.49 200.044 37.382 199.696 37.31C199.348 37.238 198.958 37.172 198.526 37.112C198.106 37.052 197.68 36.974 197.248 36.878C196.828 36.77 196.444 36.62 196.096 36.428C195.748 36.224 195.466 35.954 195.25 35.618C195.034 35.282 194.926 34.838 194.926 34.286C194.926 33.674 195.1 33.146 195.448 32.702C195.796 32.246 196.282 31.898 196.906 31.658C197.542 31.406 198.292 31.28 199.156 31.28C199.804 31.28 200.458 31.352 201.118 31.496C201.778 31.64 202.324 31.844 202.756 32.108L201.892 33.818C201.436 33.542 200.974 33.356 200.506 33.26C200.05 33.152 199.594 33.098 199.138 33.098C198.454 33.098 197.944 33.2 197.608 33.404C197.284 33.608 197.122 33.866 197.122 34.178C197.122 34.466 197.23 34.682 197.446 34.826C197.662 34.97 197.944 35.084 198.292 35.168C198.64 35.252 199.024 35.324 199.444 35.384C199.876 35.432 200.302 35.51 200.722 35.618C201.142 35.726 201.526 35.876 201.874 36.068C202.234 36.248 202.522 36.506 202.738 36.842C202.954 37.178 203.062 37.616 203.062 38.156C203.062 38.756 202.882 39.278 202.522 39.722C202.174 40.166 201.676 40.514 201.028 40.766C200.38 41.006 199.606 41.126 198.706 41.126ZM209.319 41.126C208.335 41.126 207.459 40.916 206.691 40.496C205.923 40.064 205.317 39.476 204.873 38.732C204.429 37.988 204.207 37.142 204.207 36.194C204.207 35.234 204.429 34.388 204.873 33.656C205.317 32.912 205.923 32.33 206.691 31.91C207.459 31.49 208.335 31.28 209.319 31.28C210.315 31.28 211.197 31.49 211.965 31.91C212.745 32.33 213.351 32.906 213.783 33.638C214.227 34.37 214.449 35.222 214.449 36.194C214.449 37.142 214.227 37.988 213.783 38.732C213.351 39.476 212.745 40.064 211.965 40.496C211.197 40.916 210.315 41.126 209.319 41.126ZM209.319 39.2C209.871 39.2 210.363 39.08 210.795 38.84C211.227 38.6 211.563 38.252 211.803 37.796C212.055 37.34 212.181 36.806 212.181 36.194C212.181 35.57 212.055 35.036 211.803 34.592C211.563 34.136 211.227 33.788 210.795 33.548C210.363 33.308 209.877 33.188 209.337 33.188C208.785 33.188 208.293 33.308 207.861 33.548C207.441 33.788 207.105 34.136 206.853 34.592C206.601 35.036 206.475 35.57 206.475 36.194C206.475 36.806 206.601 37.34 206.853 37.796C207.105 38.252 207.441 38.6 207.861 38.84C208.293 39.08 208.779 39.2 209.319 39.2ZM216.601 41V31.388H218.743V34.034L218.491 33.26C218.779 32.612 219.229 32.12 219.841 31.784C220.465 31.448 221.239 31.28 222.163 31.28V33.422C222.067 33.398 221.977 33.386 221.893 33.386C221.809 33.374 221.725 33.368 221.641 33.368C220.789 33.368 220.111 33.62 219.607 34.124C219.103 34.616 218.851 35.354 218.851 36.338V41H216.601ZM228.041 41.126C226.985 41.126 226.169 40.856 225.593 40.316C225.017 39.764 224.729 38.954 224.729 37.886V29.264H226.979V37.832C226.979 38.288 227.093 38.642 227.321 38.894C227.561 39.146 227.891 39.272 228.311 39.272C228.815 39.272 229.235 39.14 229.571 38.876L230.201 40.478C229.937 40.694 229.613 40.856 229.229 40.964C228.845 41.072 228.449 41.126 228.041 41.126ZM223.145 33.26V31.46H229.553V33.26H223.145ZM232.052 41V31.388H234.302V41H232.052ZM233.186 29.804C232.766 29.804 232.418 29.672 232.142 29.408C231.878 29.144 231.746 28.826 231.746 28.454C231.746 28.07 231.878 27.752 232.142 27.5C232.418 27.236 232.766 27.104 233.186 27.104C233.606 27.104 233.948 27.23 234.212 27.482C234.488 27.722 234.626 28.028 234.626 28.4C234.626 28.796 234.494 29.132 234.23 29.408C233.966 29.672 233.618 29.804 233.186 29.804ZM242.709 31.28C243.477 31.28 244.161 31.43 244.761 31.73C245.373 32.03 245.853 32.492 246.201 33.116C246.549 33.728 246.723 34.52 246.723 35.492V41H244.473V35.78C244.473 34.928 244.269 34.292 243.861 33.872C243.465 33.452 242.907 33.242 242.187 33.242C241.659 33.242 241.191 33.35 240.783 33.566C240.375 33.782 240.057 34.106 239.829 34.538C239.613 34.958 239.505 35.492 239.505 36.14V41H237.255V31.388H239.397V33.98L239.019 33.188C239.355 32.576 239.841 32.108 240.477 31.784C241.125 31.448 241.869 31.28 242.709 31.28ZM253.951 44.618C253.063 44.618 252.193 44.498 251.341 44.258C250.501 44.03 249.811 43.694 249.271 43.25L250.279 41.558C250.699 41.906 251.227 42.182 251.863 42.386C252.511 42.602 253.165 42.71 253.825 42.71C254.881 42.71 255.655 42.464 256.147 41.972C256.639 41.492 256.885 40.766 256.885 39.794V38.084L257.065 35.906L256.993 33.728V31.388H259.135V39.542C259.135 41.282 258.691 42.56 257.803 43.376C256.915 44.204 255.631 44.618 253.951 44.618ZM253.663 40.568C252.751 40.568 251.923 40.376 251.179 39.992C250.447 39.596 249.865 39.05 249.433 38.354C249.013 37.658 248.803 36.842 248.803 35.906C248.803 34.982 249.013 34.172 249.433 33.476C249.865 32.78 250.447 32.24 251.179 31.856C251.923 31.472 252.751 31.28 253.663 31.28C254.479 31.28 255.211 31.442 255.859 31.766C256.507 32.09 257.023 32.594 257.407 33.278C257.803 33.962 258.001 34.838 258.001 35.906C258.001 36.974 257.803 37.856 257.407 38.552C257.023 39.236 256.507 39.746 255.859 40.082C255.211 40.406 254.479 40.568 253.663 40.568ZM254.005 38.66C254.569 38.66 255.073 38.546 255.517 38.318C255.961 38.078 256.303 37.754 256.543 37.346C256.795 36.926 256.921 36.446 256.921 35.906C256.921 35.366 256.795 34.892 256.543 34.484C256.303 34.064 255.961 33.746 255.517 33.53C255.073 33.302 254.569 33.188 254.005 33.188C253.441 33.188 252.931 33.302 252.475 33.53C252.031 33.746 251.683 34.064 251.431 34.484C251.191 34.892 251.071 35.366 251.071 35.906C251.071 36.446 251.191 36.926 251.431 37.346C251.683 37.754 252.031 38.078 252.475 38.318C252.931 38.546 253.441 38.66 254.005 38.66Z" fill="#141414"/>
<rect x="0.5" y="0.5" width="399" height="219" rx="19.5" stroke="#141414"/>
<defs>
<linearGradient id="paint0_linear_154_3194" x1="479" y1="-48" x2="-80.5" y2="263.5" gradientUnits="userSpaceOnUse">
<stop stop-color="#82CEFF"/>
<stop offset="1" stop-color="#FF6B9B"/>
</linearGradient>
</defs>
</svg>
