<svg width="400" height="220" viewBox="0 0 400 220" fill="none" xmlns="http://www.w3.org/2000/svg">
<rect x="0.5" y="0.5" width="399" height="219" rx="19.5" fill="white"/>
<rect x="93" y="142" width="29" height="32" fill="#0032FF"/>
<path d="M103.423 189.504C104.522 189.611 105.359 189.952 105.935 190.528C106.511 191.093 106.799 191.819 106.799 192.704C106.799 193.344 106.639 193.925 106.319 194.448C105.999 194.96 105.519 195.371 104.879 195.68C104.25 195.979 103.477 196.128 102.559 196.128C101.759 196.128 100.991 196.011 100.255 195.776C99.5192 195.531 98.9165 195.195 98.4472 194.768L99.1832 193.504C99.5672 193.867 100.058 194.16 100.655 194.384C101.253 194.597 101.887 194.704 102.559 194.704C103.391 194.704 104.037 194.528 104.495 194.176C104.965 193.824 105.199 193.339 105.199 192.72C105.199 192.101 104.97 191.621 104.511 191.28C104.053 190.939 103.359 190.768 102.431 190.768H101.535V189.648L104.351 186.192H98.9592V184.8H106.351V185.888L103.423 189.504ZM116.085 194.608V196H108.037V194.912L112.597 190.512C113.152 189.979 113.525 189.52 113.717 189.136C113.909 188.741 114.005 188.347 114.005 187.952C114.005 187.365 113.797 186.912 113.381 186.592C112.976 186.261 112.389 186.096 111.621 186.096C110.384 186.096 109.429 186.501 108.757 187.312L107.669 186.368C108.107 185.835 108.677 185.419 109.381 185.12C110.096 184.821 110.891 184.672 111.765 184.672C112.939 184.672 113.872 184.955 114.565 185.52C115.259 186.075 115.605 186.832 115.605 187.792C115.605 188.389 115.477 188.955 115.221 189.488C114.965 190.021 114.48 190.629 113.765 191.312L110.341 194.608H116.085Z" fill="#3D3D3D"/>
<rect x="130" y="110" width="29" height="64" fill="#D252E1"/>
<path d="M139.811 189.2C140.547 189.2 141.203 189.339 141.779 189.616C142.366 189.893 142.824 190.293 143.155 190.816C143.486 191.328 143.651 191.92 143.651 192.592C143.651 193.296 143.475 193.915 143.123 194.448C142.782 194.981 142.307 195.397 141.699 195.696C141.102 195.984 140.43 196.128 139.683 196.128C138.179 196.128 137.016 195.643 136.195 194.672C135.384 193.701 134.979 192.325 134.979 190.544C134.979 189.296 135.198 188.235 135.635 187.36C136.083 186.475 136.702 185.808 137.491 185.36C138.291 184.901 139.219 184.672 140.275 184.672C140.819 184.672 141.331 184.731 141.811 184.848C142.291 184.955 142.707 185.115 143.059 185.328L142.451 186.576C141.918 186.224 141.203 186.048 140.307 186.048C139.144 186.048 138.232 186.411 137.571 187.136C136.91 187.851 136.579 188.896 136.579 190.272C136.579 190.443 136.584 190.576 136.595 190.672C136.915 190.192 137.352 189.829 137.907 189.584C138.472 189.328 139.107 189.2 139.811 189.2ZM139.619 194.832C140.355 194.832 140.952 194.635 141.411 194.24C141.87 193.845 142.099 193.317 142.099 192.656C142.099 191.995 141.864 191.472 141.395 191.088C140.936 190.693 140.318 190.496 139.539 190.496C139.038 190.496 138.59 190.592 138.195 190.784C137.811 190.976 137.507 191.237 137.283 191.568C137.07 191.899 136.963 192.267 136.963 192.672C136.963 193.067 137.064 193.429 137.267 193.76C137.48 194.08 137.784 194.341 138.179 194.544C138.584 194.736 139.064 194.832 139.619 194.832ZM154.598 193.248H152.47V196H150.918V193.248H144.694V192.128L150.422 184.8H152.15L146.662 191.872H150.966V189.44H152.47V191.872H154.598V193.248Z" fill="#3D3D3D"/>
<rect x="167" y="92" width="29" height="82" fill="#D252E1"/>
<path d="M179.374 190.128C180.014 190.373 180.504 190.725 180.846 191.184C181.187 191.643 181.358 192.192 181.358 192.832C181.358 193.504 181.176 194.091 180.814 194.592C180.451 195.083 179.934 195.461 179.262 195.728C178.59 195.995 177.8 196.128 176.894 196.128C175.998 196.128 175.214 195.995 174.542 195.728C173.88 195.461 173.368 195.083 173.006 194.592C172.643 194.091 172.462 193.504 172.462 192.832C172.462 192.192 172.627 191.643 172.958 191.184C173.299 190.725 173.79 190.373 174.43 190.128C173.918 189.883 173.528 189.557 173.262 189.152C172.995 188.747 172.862 188.267 172.862 187.712C172.862 187.093 173.027 186.555 173.358 186.096C173.699 185.637 174.174 185.285 174.782 185.04C175.39 184.795 176.094 184.672 176.894 184.672C177.704 184.672 178.414 184.795 179.022 185.04C179.64 185.285 180.115 185.637 180.446 186.096C180.787 186.555 180.958 187.093 180.958 187.712C180.958 188.256 180.819 188.736 180.542 189.152C180.275 189.557 179.886 189.883 179.374 190.128ZM176.894 185.968C176.136 185.968 175.539 186.133 175.102 186.464C174.664 186.784 174.446 187.221 174.446 187.776C174.446 188.331 174.659 188.768 175.086 189.088C175.523 189.408 176.126 189.568 176.894 189.568C177.672 189.568 178.28 189.408 178.718 189.088C179.166 188.768 179.39 188.331 179.39 187.776C179.39 187.221 179.16 186.784 178.702 186.464C178.254 186.133 177.651 185.968 176.894 185.968ZM176.894 194.832C177.779 194.832 178.478 194.651 178.99 194.288C179.502 193.915 179.758 193.413 179.758 192.784C179.758 192.165 179.502 191.68 178.99 191.328C178.478 190.965 177.779 190.784 176.894 190.784C176.008 190.784 175.315 190.965 174.814 191.328C174.312 191.68 174.062 192.165 174.062 192.784C174.062 193.413 174.312 193.915 174.814 194.288C175.315 194.651 176.008 194.832 176.894 194.832ZM190.695 194.608V196H182.647V194.912L187.207 190.512C187.761 189.979 188.135 189.52 188.327 189.136C188.519 188.741 188.615 188.347 188.615 187.952C188.615 187.365 188.407 186.912 187.991 186.592C187.585 186.261 186.999 186.096 186.231 186.096C184.993 186.096 184.039 186.501 183.367 187.312L182.279 186.368C182.716 185.835 183.287 185.419 183.991 185.12C184.705 184.821 185.5 184.672 186.375 184.672C187.548 184.672 188.481 184.955 189.175 185.52C189.868 186.075 190.215 186.832 190.215 187.792C190.215 188.389 190.087 188.955 189.831 189.488C189.575 190.021 189.089 190.629 188.375 191.312L184.951 194.608H190.695Z" fill="#3D3D3D"/>
<rect x="204" y="78" width="29" height="96" fill="#0032FF"/>
<path d="M213.025 184.672C214.529 184.672 215.686 185.157 216.497 186.128C217.318 187.099 217.729 188.475 217.729 190.256C217.729 191.504 217.505 192.571 217.057 193.456C216.62 194.331 216.001 194.997 215.201 195.456C214.412 195.904 213.489 196.128 212.433 196.128C211.889 196.128 211.377 196.075 210.897 195.968C210.417 195.851 210.001 195.685 209.649 195.472L210.257 194.224C210.801 194.576 211.521 194.752 212.417 194.752C213.58 194.752 214.486 194.395 215.137 193.68C215.798 192.955 216.129 191.904 216.129 190.528V190.128C215.809 190.608 215.366 190.976 214.801 191.232C214.236 191.477 213.601 191.6 212.897 191.6C212.161 191.6 211.5 191.461 210.913 191.184C210.337 190.907 209.884 190.512 209.553 190C209.233 189.477 209.073 188.88 209.073 188.208C209.073 187.504 209.244 186.885 209.585 186.352C209.937 185.819 210.412 185.408 211.009 185.12C211.606 184.821 212.278 184.672 213.025 184.672ZM213.169 190.304C213.67 190.304 214.118 190.208 214.513 190.016C214.908 189.824 215.212 189.563 215.425 189.232C215.649 188.901 215.761 188.533 215.761 188.128C215.761 187.733 215.654 187.376 215.441 187.056C215.238 186.725 214.934 186.464 214.529 186.272C214.134 186.069 213.654 185.968 213.089 185.968C212.353 185.968 211.756 186.165 211.297 186.56C210.849 186.955 210.625 187.483 210.625 188.144C210.625 188.805 210.854 189.333 211.313 189.728C211.772 190.112 212.39 190.304 213.169 190.304ZM224.1 189.2C224.836 189.2 225.492 189.339 226.068 189.616C226.655 189.893 227.113 190.293 227.444 190.816C227.775 191.328 227.94 191.92 227.94 192.592C227.94 193.296 227.764 193.915 227.412 194.448C227.071 194.981 226.596 195.397 225.988 195.696C225.391 195.984 224.719 196.128 223.972 196.128C222.468 196.128 221.305 195.643 220.484 194.672C219.673 193.701 219.268 192.325 219.268 190.544C219.268 189.296 219.487 188.235 219.924 187.36C220.372 186.475 220.991 185.808 221.78 185.36C222.58 184.901 223.508 184.672 224.564 184.672C225.108 184.672 225.62 184.731 226.1 184.848C226.58 184.955 226.996 185.115 227.348 185.328L226.74 186.576C226.207 186.224 225.492 186.048 224.596 186.048C223.433 186.048 222.521 186.411 221.86 187.136C221.199 187.851 220.868 188.896 220.868 190.272C220.868 190.443 220.873 190.576 220.884 190.672C221.204 190.192 221.641 189.829 222.196 189.584C222.761 189.328 223.396 189.2 224.1 189.2ZM223.908 194.832C224.644 194.832 225.241 194.635 225.7 194.24C226.159 193.845 226.388 193.317 226.388 192.656C226.388 191.995 226.153 191.472 225.684 191.088C225.225 190.693 224.607 190.496 223.828 190.496C223.327 190.496 222.879 190.592 222.484 190.784C222.1 190.976 221.796 191.237 221.572 191.568C221.359 191.899 221.252 192.267 221.252 192.672C221.252 193.067 221.353 193.429 221.556 193.76C221.769 194.08 222.073 194.341 222.468 194.544C222.873 194.736 223.353 194.832 223.908 194.832Z" fill="#3D3D3D"/>
<rect x="241" y="86" width="29" height="88" fill="#0032FF"/>
<path d="M252.819 190.128C253.459 190.373 253.95 190.725 254.291 191.184C254.632 191.643 254.803 192.192 254.803 192.832C254.803 193.504 254.622 194.091 254.259 194.592C253.896 195.083 253.379 195.461 252.707 195.728C252.035 195.995 251.246 196.128 250.339 196.128C249.443 196.128 248.659 195.995 247.987 195.728C247.326 195.461 246.814 195.083 246.451 194.592C246.088 194.091 245.907 193.504 245.907 192.832C245.907 192.192 246.072 191.643 246.403 191.184C246.744 190.725 247.235 190.373 247.875 190.128C247.363 189.883 246.974 189.557 246.707 189.152C246.44 188.747 246.307 188.267 246.307 187.712C246.307 187.093 246.472 186.555 246.803 186.096C247.144 185.637 247.619 185.285 248.227 185.04C248.835 184.795 249.539 184.672 250.339 184.672C251.15 184.672 251.859 184.795 252.467 185.04C253.086 185.285 253.56 185.637 253.891 186.096C254.232 186.555 254.403 187.093 254.403 187.712C254.403 188.256 254.264 188.736 253.987 189.152C253.72 189.557 253.331 189.883 252.819 190.128ZM250.339 185.968C249.582 185.968 248.984 186.133 248.547 186.464C248.11 186.784 247.891 187.221 247.891 187.776C247.891 188.331 248.104 188.768 248.531 189.088C248.968 189.408 249.571 189.568 250.339 189.568C251.118 189.568 251.726 189.408 252.163 189.088C252.611 188.768 252.835 188.331 252.835 187.776C252.835 187.221 252.606 186.784 252.147 186.464C251.699 186.133 251.096 185.968 250.339 185.968ZM250.339 194.832C251.224 194.832 251.923 194.651 252.435 194.288C252.947 193.915 253.203 193.413 253.203 192.784C253.203 192.165 252.947 191.68 252.435 191.328C251.923 190.965 251.224 190.784 250.339 190.784C249.454 190.784 248.76 190.965 248.259 191.328C247.758 191.68 247.507 192.165 247.507 192.784C247.507 193.413 247.758 193.915 248.259 194.288C248.76 194.651 249.454 194.832 250.339 194.832ZM263.116 190.128C263.756 190.373 264.247 190.725 264.588 191.184C264.929 191.643 265.1 192.192 265.1 192.832C265.1 193.504 264.919 194.091 264.556 194.592C264.193 195.083 263.676 195.461 263.004 195.728C262.332 195.995 261.543 196.128 260.636 196.128C259.74 196.128 258.956 195.995 258.284 195.728C257.623 195.461 257.111 195.083 256.748 194.592C256.385 194.091 256.204 193.504 256.204 192.832C256.204 192.192 256.369 191.643 256.7 191.184C257.041 190.725 257.532 190.373 258.172 190.128C257.66 189.883 257.271 189.557 257.004 189.152C256.737 188.747 256.604 188.267 256.604 187.712C256.604 187.093 256.769 186.555 257.1 186.096C257.441 185.637 257.916 185.285 258.524 185.04C259.132 184.795 259.836 184.672 260.636 184.672C261.447 184.672 262.156 184.795 262.764 185.04C263.383 185.285 263.857 185.637 264.188 186.096C264.529 186.555 264.7 187.093 264.7 187.712C264.7 188.256 264.561 188.736 264.284 189.152C264.017 189.557 263.628 189.883 263.116 190.128ZM260.636 185.968C259.879 185.968 259.281 186.133 258.844 186.464C258.407 186.784 258.188 187.221 258.188 187.776C258.188 188.331 258.401 188.768 258.828 189.088C259.265 189.408 259.868 189.568 260.636 189.568C261.415 189.568 262.023 189.408 262.46 189.088C262.908 188.768 263.132 188.331 263.132 187.776C263.132 187.221 262.903 186.784 262.444 186.464C261.996 186.133 261.393 185.968 260.636 185.968ZM260.636 194.832C261.521 194.832 262.22 194.651 262.732 194.288C263.244 193.915 263.5 193.413 263.5 192.784C263.5 192.165 263.244 191.68 262.732 191.328C262.22 190.965 261.521 190.784 260.636 190.784C259.751 190.784 259.057 190.965 258.556 191.328C258.055 191.68 257.804 192.165 257.804 192.784C257.804 193.413 258.055 193.915 258.556 194.288C259.057 194.651 259.751 194.832 260.636 194.832Z" fill="#3D3D3D"/>
<rect x="278" y="66" width="29" height="108" fill="#0032FF"/>
<path d="M283.107 184.8V196H281.523V186.192H278.995V184.8H283.107ZM290.133 196.128C289.248 196.128 288.458 195.904 287.765 195.456C287.082 194.997 286.544 194.336 286.149 193.472C285.754 192.608 285.557 191.584 285.557 190.4C285.557 189.216 285.754 188.192 286.149 187.328C286.544 186.464 287.082 185.808 287.765 185.36C288.458 184.901 289.248 184.672 290.133 184.672C291.008 184.672 291.786 184.901 292.469 185.36C293.162 185.808 293.706 186.464 294.101 187.328C294.496 188.192 294.693 189.216 294.693 190.4C294.693 191.584 294.496 192.608 294.101 193.472C293.706 194.336 293.162 194.997 292.469 195.456C291.786 195.904 291.008 196.128 290.133 196.128ZM290.133 194.704C291.029 194.704 291.744 194.336 292.277 193.6C292.821 192.864 293.093 191.797 293.093 190.4C293.093 189.003 292.821 187.936 292.277 187.2C291.744 186.464 291.029 186.096 290.133 186.096C289.226 186.096 288.501 186.464 287.957 187.2C287.424 187.936 287.157 189.003 287.157 190.4C287.157 191.797 287.424 192.864 287.957 193.6C288.501 194.336 289.226 194.704 290.133 194.704ZM300.805 196.128C299.92 196.128 299.13 195.904 298.437 195.456C297.754 194.997 297.216 194.336 296.821 193.472C296.426 192.608 296.229 191.584 296.229 190.4C296.229 189.216 296.426 188.192 296.821 187.328C297.216 186.464 297.754 185.808 298.437 185.36C299.13 184.901 299.92 184.672 300.805 184.672C301.68 184.672 302.458 184.901 303.141 185.36C303.834 185.808 304.378 186.464 304.773 187.328C305.168 188.192 305.365 189.216 305.365 190.4C305.365 191.584 305.168 192.608 304.773 193.472C304.378 194.336 303.834 194.997 303.141 195.456C302.458 195.904 301.68 196.128 300.805 196.128ZM300.805 194.704C301.701 194.704 302.416 194.336 302.949 193.6C303.493 192.864 303.765 191.797 303.765 190.4C303.765 189.003 303.493 187.936 302.949 187.2C302.416 186.464 301.701 186.096 300.805 186.096C299.898 186.096 299.173 186.464 298.629 187.2C298.096 187.936 297.829 189.003 297.829 190.4C297.829 191.797 298.096 192.864 298.629 193.6C299.173 194.336 299.898 194.704 300.805 194.704Z" fill="#3D3D3D"/>
<path d="M140.293 41L145.963 28.4H148.267L153.955 41H151.507L146.629 29.642H147.565L142.705 41H140.293ZM142.903 38.084L143.533 36.248H150.337L150.967 38.084H142.903ZM155.341 41V31.388H157.483V34.034L157.231 33.26C157.519 32.612 157.969 32.12 158.581 31.784C159.205 31.448 159.979 31.28 160.903 31.28V33.422C160.807 33.398 160.717 33.386 160.633 33.386C160.549 33.374 160.465 33.368 160.381 33.368C159.529 33.368 158.851 33.62 158.347 34.124C157.843 34.616 157.591 35.354 157.591 36.338V41H155.341ZM162.812 41V31.388H164.954V34.034L164.702 33.26C164.99 32.612 165.44 32.12 166.052 31.784C166.676 31.448 167.45 31.28 168.374 31.28V33.422C168.278 33.398 168.188 33.386 168.104 33.386C168.02 33.374 167.936 33.368 167.852 33.368C167 33.368 166.322 33.62 165.818 34.124C165.314 34.616 165.062 35.354 165.062 36.338V41H162.812ZM175.519 41V39.056L175.393 38.642V35.24C175.393 34.58 175.195 34.07 174.799 33.71C174.403 33.338 173.803 33.152 172.999 33.152C172.459 33.152 171.925 33.236 171.397 33.404C170.881 33.572 170.443 33.806 170.083 34.106L169.201 32.468C169.717 32.072 170.329 31.778 171.037 31.586C171.757 31.382 172.501 31.28 173.269 31.28C174.661 31.28 175.735 31.616 176.491 32.288C177.259 32.948 177.643 33.974 177.643 35.366V41H175.519ZM172.495 41.126C171.775 41.126 171.145 41.006 170.605 40.766C170.065 40.514 169.645 40.172 169.345 39.74C169.057 39.296 168.913 38.798 168.913 38.246C168.913 37.706 169.039 37.22 169.291 36.788C169.555 36.356 169.981 36.014 170.569 35.762C171.157 35.51 171.937 35.384 172.909 35.384H175.699V36.878H173.071C172.303 36.878 171.787 37.004 171.523 37.256C171.259 37.496 171.127 37.796 171.127 38.156C171.127 38.564 171.289 38.888 171.613 39.128C171.937 39.368 172.387 39.488 172.963 39.488C173.515 39.488 174.007 39.362 174.439 39.11C174.883 38.858 175.201 38.486 175.393 37.994L175.771 39.344C175.555 39.908 175.165 40.346 174.601 40.658C174.049 40.97 173.347 41.126 172.495 41.126ZM181.147 44.618C180.679 44.618 180.211 44.54 179.743 44.384C179.275 44.228 178.885 44.012 178.573 43.736L179.473 42.08C179.701 42.284 179.959 42.446 180.247 42.566C180.535 42.686 180.829 42.746 181.129 42.746C181.537 42.746 181.867 42.644 182.119 42.44C182.371 42.236 182.605 41.894 182.821 41.414L183.379 40.154L183.559 39.884L187.195 31.388H189.355L184.855 41.774C184.555 42.494 184.219 43.064 183.847 43.484C183.487 43.904 183.079 44.198 182.623 44.366C182.179 44.534 181.687 44.618 181.147 44.618ZM183.127 41.342L178.789 31.388H181.129L184.657 39.686L183.127 41.342ZM198.706 41.126C197.902 41.126 197.128 41.024 196.384 40.82C195.652 40.604 195.07 40.346 194.638 40.046L195.502 38.336C195.934 38.612 196.45 38.84 197.05 39.02C197.65 39.2 198.25 39.29 198.85 39.29C199.558 39.29 200.068 39.194 200.38 39.002C200.704 38.81 200.866 38.552 200.866 38.228C200.866 37.964 200.758 37.766 200.542 37.634C200.326 37.49 200.044 37.382 199.696 37.31C199.348 37.238 198.958 37.172 198.526 37.112C198.106 37.052 197.68 36.974 197.248 36.878C196.828 36.77 196.444 36.62 196.096 36.428C195.748 36.224 195.466 35.954 195.25 35.618C195.034 35.282 194.926 34.838 194.926 34.286C194.926 33.674 195.1 33.146 195.448 32.702C195.796 32.246 196.282 31.898 196.906 31.658C197.542 31.406 198.292 31.28 199.156 31.28C199.804 31.28 200.458 31.352 201.118 31.496C201.778 31.64 202.324 31.844 202.756 32.108L201.892 33.818C201.436 33.542 200.974 33.356 200.506 33.26C200.05 33.152 199.594 33.098 199.138 33.098C198.454 33.098 197.944 33.2 197.608 33.404C197.284 33.608 197.122 33.866 197.122 34.178C197.122 34.466 197.23 34.682 197.446 34.826C197.662 34.97 197.944 35.084 198.292 35.168C198.64 35.252 199.024 35.324 199.444 35.384C199.876 35.432 200.302 35.51 200.722 35.618C201.142 35.726 201.526 35.876 201.874 36.068C202.234 36.248 202.522 36.506 202.738 36.842C202.954 37.178 203.062 37.616 203.062 38.156C203.062 38.756 202.882 39.278 202.522 39.722C202.174 40.166 201.676 40.514 201.028 40.766C200.38 41.006 199.606 41.126 198.706 41.126ZM209.319 41.126C208.335 41.126 207.459 40.916 206.691 40.496C205.923 40.064 205.317 39.476 204.873 38.732C204.429 37.988 204.207 37.142 204.207 36.194C204.207 35.234 204.429 34.388 204.873 33.656C205.317 32.912 205.923 32.33 206.691 31.91C207.459 31.49 208.335 31.28 209.319 31.28C210.315 31.28 211.197 31.49 211.965 31.91C212.745 32.33 213.351 32.906 213.783 33.638C214.227 34.37 214.449 35.222 214.449 36.194C214.449 37.142 214.227 37.988 213.783 38.732C213.351 39.476 212.745 40.064 211.965 40.496C211.197 40.916 210.315 41.126 209.319 41.126ZM209.319 39.2C209.871 39.2 210.363 39.08 210.795 38.84C211.227 38.6 211.563 38.252 211.803 37.796C212.055 37.34 212.181 36.806 212.181 36.194C212.181 35.57 212.055 35.036 211.803 34.592C211.563 34.136 211.227 33.788 210.795 33.548C210.363 33.308 209.877 33.188 209.337 33.188C208.785 33.188 208.293 33.308 207.861 33.548C207.441 33.788 207.105 34.136 206.853 34.592C206.601 35.036 206.475 35.57 206.475 36.194C206.475 36.806 206.601 37.34 206.853 37.796C207.105 38.252 207.441 38.6 207.861 38.84C208.293 39.08 208.779 39.2 209.319 39.2ZM216.601 41V31.388H218.743V34.034L218.491 33.26C218.779 32.612 219.229 32.12 219.841 31.784C220.465 31.448 221.239 31.28 222.163 31.28V33.422C222.067 33.398 221.977 33.386 221.893 33.386C221.809 33.374 221.725 33.368 221.641 33.368C220.789 33.368 220.111 33.62 219.607 34.124C219.103 34.616 218.851 35.354 218.851 36.338V41H216.601ZM228.041 41.126C226.985 41.126 226.169 40.856 225.593 40.316C225.017 39.764 224.729 38.954 224.729 37.886V29.264H226.979V37.832C226.979 38.288 227.093 38.642 227.321 38.894C227.561 39.146 227.891 39.272 228.311 39.272C228.815 39.272 229.235 39.14 229.571 38.876L230.201 40.478C229.937 40.694 229.613 40.856 229.229 40.964C228.845 41.072 228.449 41.126 228.041 41.126ZM223.145 33.26V31.46H229.553V33.26H223.145ZM232.052 41V31.388H234.302V41H232.052ZM233.186 29.804C232.766 29.804 232.418 29.672 232.142 29.408C231.878 29.144 231.746 28.826 231.746 28.454C231.746 28.07 231.878 27.752 232.142 27.5C232.418 27.236 232.766 27.104 233.186 27.104C233.606 27.104 233.948 27.23 234.212 27.482C234.488 27.722 234.626 28.028 234.626 28.4C234.626 28.796 234.494 29.132 234.23 29.408C233.966 29.672 233.618 29.804 233.186 29.804ZM242.709 31.28C243.477 31.28 244.161 31.43 244.761 31.73C245.373 32.03 245.853 32.492 246.201 33.116C246.549 33.728 246.723 34.52 246.723 35.492V41H244.473V35.78C244.473 34.928 244.269 34.292 243.861 33.872C243.465 33.452 242.907 33.242 242.187 33.242C241.659 33.242 241.191 33.35 240.783 33.566C240.375 33.782 240.057 34.106 239.829 34.538C239.613 34.958 239.505 35.492 239.505 36.14V41H237.255V31.388H239.397V33.98L239.019 33.188C239.355 32.576 239.841 32.108 240.477 31.784C241.125 31.448 241.869 31.28 242.709 31.28ZM253.951 44.618C253.063 44.618 252.193 44.498 251.341 44.258C250.501 44.03 249.811 43.694 249.271 43.25L250.279 41.558C250.699 41.906 251.227 42.182 251.863 42.386C252.511 42.602 253.165 42.71 253.825 42.71C254.881 42.71 255.655 42.464 256.147 41.972C256.639 41.492 256.885 40.766 256.885 39.794V38.084L257.065 35.906L256.993 33.728V31.388H259.135V39.542C259.135 41.282 258.691 42.56 257.803 43.376C256.915 44.204 255.631 44.618 253.951 44.618ZM253.663 40.568C252.751 40.568 251.923 40.376 251.179 39.992C250.447 39.596 249.865 39.05 249.433 38.354C249.013 37.658 248.803 36.842 248.803 35.906C248.803 34.982 249.013 34.172 249.433 33.476C249.865 32.78 250.447 32.24 251.179 31.856C251.923 31.472 252.751 31.28 253.663 31.28C254.479 31.28 255.211 31.442 255.859 31.766C256.507 32.09 257.023 32.594 257.407 33.278C257.803 33.962 258.001 34.838 258.001 35.906C258.001 36.974 257.803 37.856 257.407 38.552C257.023 39.236 256.507 39.746 255.859 40.082C255.211 40.406 254.479 40.568 253.663 40.568ZM254.005 38.66C254.569 38.66 255.073 38.546 255.517 38.318C255.961 38.078 256.303 37.754 256.543 37.346C256.795 36.926 256.921 36.446 256.921 35.906C256.921 35.366 256.795 34.892 256.543 34.484C256.303 34.064 255.961 33.746 255.517 33.53C255.073 33.302 254.569 33.188 254.005 33.188C253.441 33.188 252.931 33.302 252.475 33.53C252.031 33.746 251.683 34.064 251.431 34.484C251.191 34.892 251.071 35.366 251.071 35.906C251.071 36.446 251.191 36.926 251.431 37.346C251.683 37.754 252.031 38.078 252.475 38.318C252.931 38.546 253.441 38.66 254.005 38.66Z" fill="#141414"/>
<rect x="0.5" y="0.5" width="399" height="219" rx="19.5" stroke="#141414"/>
</svg>
