<svg width="400" height="220" viewBox="0 0 400 220" fill="none" xmlns="http://www.w3.org/2000/svg">
<rect x="0.5" y="0.5" width="399" height="219" rx="19.5" fill="url(#paint0_linear_154_3240)"/>
<path d="M154.099 41V28.4H156.439V39.02H163.027V41H154.099ZM164.659 41V31.388H166.909V41H164.659ZM165.793 29.804C165.373 29.804 165.025 29.672 164.749 29.408C164.485 29.144 164.353 28.826 164.353 28.454C164.353 28.07 164.485 27.752 164.749 27.5C165.025 27.236 165.373 27.104 165.793 27.104C166.213 27.104 166.555 27.23 166.819 27.482C167.095 27.722 167.233 28.028 167.233 28.4C167.233 28.796 167.101 29.132 166.837 29.408C166.573 29.672 166.225 29.804 165.793 29.804ZM175.316 31.28C176.084 31.28 176.768 31.43 177.368 31.73C177.98 32.03 178.46 32.492 178.808 33.116C179.156 33.728 179.33 34.52 179.33 35.492V41H177.08V35.78C177.08 34.928 176.876 34.292 176.468 33.872C176.072 33.452 175.514 33.242 174.794 33.242C174.266 33.242 173.798 33.35 173.39 33.566C172.982 33.782 172.664 34.106 172.436 34.538C172.22 34.958 172.112 35.492 172.112 36.14V41H169.862V31.388H172.004V33.98L171.626 33.188C171.962 32.576 172.448 32.108 173.084 31.784C173.732 31.448 174.476 31.28 175.316 31.28ZM184.02 38.858L184.074 36.032L189.096 31.388H191.796L187.53 35.672L186.342 36.662L184.02 38.858ZM182.184 41V27.644H184.434V41H182.184ZM189.438 41L185.928 36.662L187.35 34.862L192.174 41H189.438ZM197.759 41.126C196.691 41.126 195.755 40.916 194.951 40.496C194.159 40.064 193.541 39.476 193.097 38.732C192.665 37.988 192.449 37.142 192.449 36.194C192.449 35.234 192.659 34.388 193.079 33.656C193.511 32.912 194.099 32.33 194.843 31.91C195.599 31.49 196.457 31.28 197.417 31.28C198.353 31.28 199.187 31.484 199.919 31.892C200.651 32.3 201.227 32.876 201.647 33.62C202.067 34.364 202.277 35.24 202.277 36.248C202.277 36.344 202.271 36.452 202.259 36.572C202.259 36.692 202.253 36.806 202.241 36.914H194.231V35.42H201.053L200.171 35.888C200.183 35.336 200.069 34.85 199.829 34.43C199.589 34.01 199.259 33.68 198.839 33.44C198.431 33.2 197.957 33.08 197.417 33.08C196.865 33.08 196.379 33.2 195.959 33.44C195.551 33.68 195.227 34.016 194.987 34.448C194.759 34.868 194.645 35.366 194.645 35.942V36.302C194.645 36.878 194.777 37.388 195.041 37.832C195.305 38.276 195.677 38.618 196.157 38.858C196.637 39.098 197.189 39.218 197.813 39.218C198.353 39.218 198.839 39.134 199.271 38.966C199.703 38.798 200.087 38.534 200.423 38.174L201.629 39.56C201.197 40.064 200.651 40.454 199.991 40.73C199.343 40.994 198.599 41.126 197.759 41.126ZM208.506 41.126C207.582 41.126 206.748 40.922 206.004 40.514C205.272 40.094 204.696 39.518 204.276 38.786C203.856 38.054 203.646 37.19 203.646 36.194C203.646 35.198 203.856 34.334 204.276 33.602C204.696 32.87 205.272 32.3 206.004 31.892C206.748 31.484 207.582 31.28 208.506 31.28C209.31 31.28 210.03 31.46 210.666 31.82C211.302 32.168 211.806 32.702 212.178 33.422C212.55 34.142 212.736 35.066 212.736 36.194C212.736 37.31 212.556 38.234 212.196 38.966C211.836 39.686 211.338 40.226 210.702 40.586C210.066 40.946 209.334 41.126 208.506 41.126ZM208.776 39.2C209.316 39.2 209.796 39.08 210.216 38.84C210.648 38.6 210.99 38.252 211.242 37.796C211.506 37.34 211.638 36.806 211.638 36.194C211.638 35.57 211.506 35.036 211.242 34.592C210.99 34.136 210.648 33.788 210.216 33.548C209.796 33.308 209.316 33.188 208.776 33.188C208.236 33.188 207.75 33.308 207.318 33.548C206.898 33.788 206.556 34.136 206.292 34.592C206.04 35.036 205.914 35.57 205.914 36.194C205.914 36.806 206.04 37.34 206.292 37.796C206.556 38.252 206.898 38.6 207.318 38.84C207.75 39.08 208.236 39.2 208.776 39.2ZM211.692 41V38.732L211.782 36.176L211.602 33.62V27.644H213.834V41H211.692ZM221.77 41V27.644H224.02V41H221.77ZM226.973 41V31.388H229.223V41H226.973ZM228.107 29.804C227.687 29.804 227.339 29.672 227.063 29.408C226.799 29.144 226.667 28.826 226.667 28.454C226.667 28.07 226.799 27.752 227.063 27.5C227.339 27.236 227.687 27.104 228.107 27.104C228.527 27.104 228.869 27.23 229.133 27.482C229.409 27.722 229.547 28.028 229.547 28.4C229.547 28.796 229.415 29.132 229.151 29.408C228.887 29.672 228.539 29.804 228.107 29.804ZM235.146 41.126C234.342 41.126 233.568 41.024 232.824 40.82C232.092 40.604 231.51 40.346 231.078 40.046L231.942 38.336C232.374 38.612 232.89 38.84 233.49 39.02C234.09 39.2 234.69 39.29 235.29 39.29C235.998 39.29 236.508 39.194 236.82 39.002C237.144 38.81 237.306 38.552 237.306 38.228C237.306 37.964 237.198 37.766 236.982 37.634C236.766 37.49 236.484 37.382 236.136 37.31C235.788 37.238 235.398 37.172 234.966 37.112C234.546 37.052 234.12 36.974 233.688 36.878C233.268 36.77 232.884 36.62 232.536 36.428C232.188 36.224 231.906 35.954 231.69 35.618C231.474 35.282 231.366 34.838 231.366 34.286C231.366 33.674 231.54 33.146 231.888 32.702C232.236 32.246 232.722 31.898 233.346 31.658C233.982 31.406 234.732 31.28 235.596 31.28C236.244 31.28 236.898 31.352 237.558 31.496C238.218 31.64 238.764 31.844 239.196 32.108L238.332 33.818C237.876 33.542 237.414 33.356 236.946 33.26C236.49 33.152 236.034 33.098 235.578 33.098C234.894 33.098 234.384 33.2 234.048 33.404C233.724 33.608 233.562 33.866 233.562 34.178C233.562 34.466 233.67 34.682 233.886 34.826C234.102 34.97 234.384 35.084 234.732 35.168C235.08 35.252 235.464 35.324 235.884 35.384C236.316 35.432 236.742 35.51 237.162 35.618C237.582 35.726 237.966 35.876 238.314 36.068C238.674 36.248 238.962 36.506 239.178 36.842C239.394 37.178 239.502 37.616 239.502 38.156C239.502 38.756 239.322 39.278 238.962 39.722C238.614 40.166 238.116 40.514 237.468 40.766C236.82 41.006 236.046 41.126 235.146 41.126ZM245.058 41.126C244.002 41.126 243.186 40.856 242.61 40.316C242.034 39.764 241.746 38.954 241.746 37.886V29.264H243.996V37.832C243.996 38.288 244.11 38.642 244.338 38.894C244.578 39.146 244.908 39.272 245.328 39.272C245.832 39.272 246.252 39.14 246.588 38.876L247.218 40.478C246.954 40.694 246.63 40.856 246.246 40.964C245.862 41.072 245.466 41.126 245.058 41.126ZM240.162 33.26V31.46H246.57V33.26H240.162Z" fill="#141414"/>
<rect x="73" y="117" width="38" height="38" rx="19" fill="white"/>
<path d="M87.3094 142.16C86.3814 142.16 85.576 142.021 84.8934 141.744C84.2107 141.467 83.6827 141.077 83.3094 140.576C82.936 140.064 82.7494 139.467 82.7494 138.784C82.7494 138.101 82.9307 137.525 83.2934 137.056C83.656 136.587 84.1787 136.229 84.8614 135.984C85.544 135.739 86.36 135.616 87.3094 135.616C88.2587 135.616 89.0747 135.739 89.7574 135.984C90.4507 136.229 90.9787 136.592 91.3414 137.072C91.7147 137.541 91.9014 138.112 91.9014 138.784C91.9014 139.467 91.7094 140.064 91.3254 140.576C90.952 141.077 90.4187 141.467 89.7254 141.744C89.0427 142.021 88.2374 142.16 87.3094 142.16ZM87.3094 140.528C88.0774 140.528 88.6854 140.368 89.1334 140.048C89.5814 139.728 89.8054 139.285 89.8054 138.72C89.8054 138.165 89.5814 137.728 89.1334 137.408C88.6854 137.088 88.0774 136.928 87.3094 136.928C86.5414 136.928 85.9387 137.088 85.5014 137.408C85.064 137.728 84.8454 138.165 84.8454 138.72C84.8454 139.285 85.064 139.728 85.5014 140.048C85.9387 140.368 86.5414 140.528 87.3094 140.528ZM87.3094 136.704C86.4454 136.704 85.704 136.592 85.0854 136.368C84.4667 136.133 83.9867 135.797 83.6454 135.36C83.3147 134.912 83.1494 134.379 83.1494 133.76C83.1494 133.12 83.32 132.571 83.6614 132.112C84.0134 131.643 84.504 131.28 85.1334 131.024C85.7627 130.768 86.488 130.64 87.3094 130.64C88.1414 130.64 88.872 130.768 89.5014 131.024C90.1307 131.28 90.6214 131.643 90.9734 132.112C91.3254 132.571 91.5014 133.12 91.5014 133.76C91.5014 134.379 91.3307 134.912 90.9894 135.36C90.6587 135.797 90.1787 136.133 89.5494 136.368C88.92 136.592 88.1734 136.704 87.3094 136.704ZM87.3094 135.424C87.9707 135.424 88.4934 135.285 88.8774 135.008C89.2614 134.72 89.4534 134.336 89.4534 133.856C89.4534 133.355 89.256 132.965 88.8614 132.688C88.4667 132.411 87.9494 132.272 87.3094 132.272C86.6694 132.272 86.1574 132.411 85.7734 132.688C85.3894 132.965 85.1974 133.355 85.1974 133.856C85.1974 134.336 85.384 134.72 85.7574 135.008C86.1414 135.285 86.6587 135.424 87.3094 135.424ZM96.9629 142.16C96.1735 142.16 95.4002 142.048 94.6429 141.824C93.8962 141.589 93.2669 141.269 92.7549 140.864L93.6349 139.248C94.0402 139.579 94.5309 139.845 95.1069 140.048C95.6935 140.251 96.3015 140.352 96.9309 140.352C97.6669 140.352 98.2429 140.197 98.6589 139.888C99.0855 139.579 99.2989 139.163 99.2989 138.64C99.2989 138.288 99.2082 137.979 99.0269 137.712C98.8562 137.445 98.5469 137.243 98.0989 137.104C97.6615 136.965 97.0589 136.896 96.2909 136.896H93.5869L94.1629 130.8H100.739V132.544H94.9309L96.0189 131.552L95.5869 136.112L94.4989 135.136H96.7549C97.8642 135.136 98.7549 135.285 99.4269 135.584C100.11 135.872 100.606 136.277 100.915 136.8C101.235 137.312 101.395 137.899 101.395 138.56C101.395 139.211 101.235 139.808 100.915 140.352C100.595 140.896 100.104 141.333 99.4429 141.664C98.7922 141.995 97.9655 142.16 96.9629 142.16Z" fill="#3D3D3D"/>
<rect x="73" y="117" width="38" height="38" rx="19" stroke="#0032FF" stroke-width="2"/>
<path d="M91.9991 178.096C91.1351 178.096 90.3671 177.872 89.6951 177.424C89.0231 176.965 88.4951 176.315 88.1111 175.472C87.7271 174.619 87.5351 173.595 87.5351 172.4C87.5351 171.205 87.7271 170.187 88.1111 169.344C88.4951 168.491 89.0231 167.84 89.6951 167.392C90.3671 166.933 91.1351 166.704 91.9991 166.704C92.8631 166.704 93.6311 166.933 94.3031 167.392C94.9751 167.84 95.5031 168.491 95.8871 169.344C96.2818 170.187 96.4791 171.205 96.4791 172.4C96.4791 173.595 96.2818 174.619 95.8871 175.472C95.5031 176.315 94.9751 176.965 94.3031 177.424C93.6311 177.872 92.8631 178.096 91.9991 178.096ZM91.9991 177.04C92.6605 177.04 93.2365 176.864 93.7271 176.512C94.2178 176.149 94.6018 175.627 94.8791 174.944C95.1565 174.251 95.2951 173.403 95.2951 172.4C95.2951 171.397 95.1565 170.555 94.8791 169.872C94.6018 169.179 94.2178 168.656 93.7271 168.304C93.2365 167.941 92.6605 167.76 91.9991 167.76C91.3591 167.76 90.7885 167.941 90.2871 168.304C89.7858 168.656 89.3965 169.179 89.1191 169.872C88.8418 170.555 88.7031 171.397 88.7031 172.4C88.7031 173.403 88.8418 174.251 89.1191 174.944C89.3965 175.627 89.7858 176.149 90.2871 176.512C90.7885 176.864 91.3591 177.04 91.9991 177.04Z" fill="#3D3D3D"/>
<path fill-rule="evenodd" clip-rule="evenodd" d="M125.293 128.293C125.683 127.902 126.317 127.902 126.707 128.293L134.414 136L126.707 143.707C126.317 144.098 125.683 144.098 125.293 143.707C124.902 143.317 124.902 142.683 125.293 142.293L131.586 136L125.293 129.707C124.902 129.317 124.902 128.683 125.293 128.293Z" fill="#0032FF"/>
<rect x="145" y="117" width="38" height="38" rx="19" fill="white"/>
<path d="M158.793 142V131.6L159.705 132.544H156.425V130.8H160.873V142H158.793ZM166.615 142.16C165.825 142.16 165.052 142.048 164.295 141.824C163.548 141.589 162.919 141.269 162.407 140.864L163.303 139.248C163.708 139.579 164.199 139.845 164.775 140.048C165.351 140.251 165.953 140.352 166.583 140.352C167.329 140.352 167.911 140.203 168.327 139.904C168.743 139.595 168.951 139.179 168.951 138.656C168.951 138.144 168.759 137.739 168.375 137.44C167.991 137.141 167.372 136.992 166.519 136.992H165.495V135.568L168.695 131.76L168.967 132.544H162.951V130.8H170.583V132.192L167.383 136L166.295 135.36H166.919C168.295 135.36 169.324 135.669 170.007 136.288C170.7 136.896 171.047 137.68 171.047 138.64C171.047 139.269 170.887 139.851 170.567 140.384C170.247 140.917 169.756 141.349 169.095 141.68C168.444 142 167.617 142.16 166.615 142.16Z" fill="#3D3D3D"/>
<rect x="145" y="117" width="38" height="38" rx="19" stroke="#0032FF" stroke-width="2"/>
<path d="M163.893 178V167.28L164.405 167.824H161.253V166.8H165.045V178H163.893Z" fill="#3D3D3D"/>
<path fill-rule="evenodd" clip-rule="evenodd" d="M197.293 128.293C197.683 127.902 198.317 127.902 198.707 128.293L206.414 136L198.707 143.707C198.317 144.098 197.683 144.098 197.293 143.707C196.902 143.317 196.902 142.683 197.293 142.293L203.586 136L197.293 129.707C196.902 129.317 196.902 128.683 197.293 128.293Z" fill="#0032FF"/>
<rect x="217" y="117" width="38" height="38" rx="19" fill="white"/>
<path d="M230.138 142.16C229.349 142.16 228.575 142.048 227.818 141.824C227.071 141.589 226.442 141.269 225.93 140.864L226.826 139.248C227.231 139.579 227.722 139.845 228.298 140.048C228.874 140.251 229.477 140.352 230.106 140.352C230.853 140.352 231.434 140.203 231.85 139.904C232.266 139.595 232.474 139.179 232.474 138.656C232.474 138.144 232.282 137.739 231.898 137.44C231.514 137.141 230.895 136.992 230.042 136.992H229.018V135.568L232.218 131.76L232.49 132.544H226.474V130.8H234.106V132.192L230.906 136L229.818 135.36H230.442C231.818 135.36 232.847 135.669 233.53 136.288C234.223 136.896 234.57 137.68 234.57 138.64C234.57 139.269 234.41 139.851 234.09 140.384C233.77 140.917 233.279 141.349 232.618 141.68C231.967 142 231.141 142.16 230.138 142.16ZM235.771 139.456V138.016L241.291 130.8H243.515L238.075 138.016L237.035 137.696H245.915V139.456H235.771ZM241.915 142V139.456L241.979 137.696V135.44H243.931V142H241.915Z" fill="#3D3D3D"/>
<rect x="217" y="117" width="38" height="38" rx="19" stroke="#0032FF" stroke-width="2"/>
<path d="M232.077 178V177.184L236.733 172.624C237.16 172.208 237.48 171.845 237.693 171.536C237.906 171.216 238.05 170.917 238.125 170.64C238.2 170.363 238.237 170.101 238.237 169.856C238.237 169.205 238.013 168.693 237.565 168.32C237.128 167.947 236.477 167.76 235.613 167.76C234.952 167.76 234.365 167.861 233.853 168.064C233.352 168.267 232.92 168.581 232.557 169.008L231.741 168.304C232.178 167.792 232.738 167.397 233.421 167.12C234.104 166.843 234.866 166.704 235.709 166.704C236.466 166.704 237.122 166.827 237.677 167.072C238.232 167.307 238.658 167.653 238.957 168.112C239.266 168.571 239.421 169.109 239.421 169.728C239.421 170.091 239.368 170.448 239.261 170.8C239.165 171.152 238.984 171.525 238.717 171.92C238.461 172.304 238.082 172.741 237.581 173.232L233.309 177.424L232.989 176.976H239.933V178H232.077Z" fill="#3D3D3D"/>
<path fill-rule="evenodd" clip-rule="evenodd" d="M269.293 128.293C269.683 127.902 270.317 127.902 270.707 128.293L278.414 136L270.707 143.707C270.317 144.098 269.683 144.098 269.293 143.707C268.902 143.317 268.902 142.683 269.293 142.293L275.586 136L269.293 129.707C268.902 129.317 268.902 128.683 269.293 128.293Z" fill="#0032FF"/>
<rect x="289" y="117" width="38" height="38" rx="19" fill="white"/>
<path d="M307.449 142V131.6L308.361 132.544H305.081V130.8H309.529V142H307.449Z" fill="#3D3D3D"/>
<rect x="289" y="117" width="38" height="38" rx="19" stroke="#0032FF" stroke-width="2"/>
<path d="M307.66 178.096C306.85 178.096 306.082 177.968 305.356 177.712C304.642 177.445 304.066 177.093 303.628 176.656L304.188 175.744C304.551 176.117 305.036 176.427 305.644 176.672C306.263 176.917 306.935 177.04 307.66 177.04C308.588 177.04 309.298 176.837 309.788 176.432C310.29 176.027 310.54 175.483 310.54 174.8C310.54 174.117 310.295 173.573 309.804 173.168C309.324 172.763 308.562 172.56 307.516 172.56H306.716V171.712L310.172 167.376L310.332 167.824H304.092V166.8H311.292V167.616L307.836 171.952L307.276 171.584H307.708C309.052 171.584 310.055 171.883 310.716 172.48C311.388 173.077 311.724 173.845 311.724 174.784C311.724 175.413 311.575 175.979 311.276 176.48C310.978 176.981 310.524 177.376 309.916 177.664C309.319 177.952 308.567 178.096 307.66 178.096Z" fill="#3D3D3D"/>
<rect x="224" y="80" width="24" height="24" rx="12" fill="white"/>
<path d="M235.981 98.16C235.053 98.16 234.248 98.0213 233.565 97.744C232.883 97.4667 232.355 97.0773 231.981 96.576C231.608 96.064 231.421 95.4667 231.421 94.784C231.421 94.1013 231.603 93.5253 231.965 93.056C232.328 92.5867 232.851 92.2293 233.533 91.984C234.216 91.7387 235.032 91.616 235.981 91.616C236.931 91.616 237.747 91.7387 238.429 91.984C239.123 92.2293 239.651 92.592 240.013 93.072C240.387 93.5413 240.573 94.112 240.573 94.784C240.573 95.4667 240.381 96.064 239.997 96.576C239.624 97.0773 239.091 97.4667 238.397 97.744C237.715 98.0213 236.909 98.16 235.981 98.16ZM235.981 96.528C236.749 96.528 237.357 96.368 237.805 96.048C238.253 95.728 238.477 95.2853 238.477 94.72C238.477 94.1653 238.253 93.728 237.805 93.408C237.357 93.088 236.749 92.928 235.981 92.928C235.213 92.928 234.611 93.088 234.173 93.408C233.736 93.728 233.517 94.1653 233.517 94.72C233.517 95.2853 233.736 95.728 234.173 96.048C234.611 96.368 235.213 96.528 235.981 96.528ZM235.981 92.704C235.117 92.704 234.376 92.592 233.757 92.368C233.139 92.1333 232.659 91.7973 232.317 91.36C231.987 90.912 231.821 90.3787 231.821 89.76C231.821 89.12 231.992 88.5707 232.333 88.112C232.685 87.6427 233.176 87.28 233.805 87.024C234.435 86.768 235.16 86.64 235.981 86.64C236.813 86.64 237.544 86.768 238.173 87.024C238.803 87.28 239.293 87.6427 239.645 88.112C239.997 88.5707 240.173 89.12 240.173 89.76C240.173 90.3787 240.003 90.912 239.661 91.36C239.331 91.7973 238.851 92.1333 238.221 92.368C237.592 92.592 236.845 92.704 235.981 92.704ZM235.981 91.424C236.643 91.424 237.165 91.2853 237.549 91.008C237.933 90.72 238.125 90.336 238.125 89.856C238.125 89.3547 237.928 88.9653 237.533 88.688C237.139 88.4107 236.621 88.272 235.981 88.272C235.341 88.272 234.829 88.4107 234.445 88.688C234.061 88.9653 233.869 89.3547 233.869 89.856C233.869 90.336 234.056 90.72 234.429 91.008C234.813 91.2853 235.331 91.424 235.981 91.424Z" fill="#0032FF"/>
<rect x="0.5" y="0.5" width="399" height="219" rx="19.5" stroke="#141414"/>
<defs>
<linearGradient id="paint0_linear_154_3240" x1="479" y1="-48" x2="-80.5" y2="263.5" gradientUnits="userSpaceOnUse">
<stop stop-color="#82CEFF"/>
<stop offset="1" stop-color="#FF6B9B"/>
</linearGradient>
</defs>
</svg>
