<svg width="400" height="220" viewBox="0 0 400 220" fill="none" xmlns="http://www.w3.org/2000/svg">
<rect x="0.5" y="0.5" width="399" height="219" rx="19.5" fill="url(#paint0_linear_154_3225)"/>
<path d="M177.071 41.18C176.087 41.18 175.181 41.018 174.353 40.694C173.525 40.37 172.805 39.92 172.193 39.344C171.581 38.756 171.107 38.072 170.771 37.292C170.435 36.5 170.267 35.636 170.267 34.7C170.267 33.764 170.435 32.906 170.771 32.126C171.107 31.334 171.581 30.65 172.193 30.074C172.805 29.486 173.525 29.03 174.353 28.706C175.181 28.382 176.081 28.22 177.053 28.22C178.037 28.22 178.937 28.382 179.753 28.706C180.581 29.03 181.301 29.48 181.913 30.056C182.525 30.632 182.999 31.316 183.335 32.108C183.671 32.9 183.839 33.764 183.839 34.7C183.839 35.636 183.671 36.5 183.335 37.292C182.999 38.084 182.525 38.768 181.913 39.344C181.301 39.92 180.581 40.37 179.753 40.694C178.937 41.018 178.043 41.18 177.071 41.18ZM181.175 43.754C180.731 43.754 180.299 43.7 179.879 43.592C179.471 43.496 179.063 43.328 178.655 43.088C178.259 42.86 177.845 42.554 177.413 42.17C176.981 41.798 176.507 41.336 175.991 40.784L178.475 40.136C178.811 40.58 179.129 40.934 179.429 41.198C179.741 41.474 180.041 41.672 180.329 41.792C180.617 41.912 180.917 41.972 181.229 41.972C182.057 41.972 182.777 41.636 183.389 40.964L184.469 42.26C183.629 43.256 182.531 43.754 181.175 43.754ZM177.053 39.128C177.689 39.128 178.277 39.02 178.817 38.804C179.357 38.588 179.825 38.282 180.221 37.886C180.617 37.478 180.923 37.004 181.139 36.464C181.367 35.924 181.481 35.336 181.481 34.7C181.481 34.052 181.367 33.464 181.139 32.936C180.923 32.396 180.617 31.928 180.221 31.532C179.825 31.124 179.357 30.812 178.817 30.596C178.277 30.38 177.689 30.272 177.053 30.272C176.417 30.272 175.829 30.38 175.289 30.596C174.749 30.812 174.281 31.124 173.885 31.532C173.489 31.928 173.177 32.396 172.949 32.936C172.733 33.464 172.625 34.052 172.625 34.7C172.625 35.336 172.733 35.924 172.949 36.464C173.177 37.004 173.489 37.478 173.885 37.886C174.281 38.282 174.749 38.588 175.289 38.804C175.829 39.02 176.417 39.128 177.053 39.128ZM190.171 41.126C189.355 41.126 188.635 40.976 188.011 40.676C187.387 40.364 186.901 39.896 186.553 39.272C186.205 38.636 186.031 37.838 186.031 36.878V31.388H188.281V36.572C188.281 37.436 188.473 38.084 188.857 38.516C189.253 38.936 189.811 39.146 190.531 39.146C191.059 39.146 191.515 39.038 191.899 38.822C192.295 38.606 192.601 38.282 192.817 37.85C193.045 37.418 193.159 36.884 193.159 36.248V31.388H195.409V41H193.267V38.408L193.645 39.2C193.321 39.824 192.847 40.304 192.223 40.64C191.599 40.964 190.915 41.126 190.171 41.126ZM202.873 41.126C201.805 41.126 200.869 40.916 200.065 40.496C199.273 40.064 198.655 39.476 198.211 38.732C197.779 37.988 197.563 37.142 197.563 36.194C197.563 35.234 197.773 34.388 198.193 33.656C198.625 32.912 199.213 32.33 199.957 31.91C200.713 31.49 201.571 31.28 202.531 31.28C203.467 31.28 204.301 31.484 205.033 31.892C205.765 32.3 206.341 32.876 206.761 33.62C207.181 34.364 207.391 35.24 207.391 36.248C207.391 36.344 207.385 36.452 207.373 36.572C207.373 36.692 207.367 36.806 207.355 36.914H199.345V35.42H206.167L205.285 35.888C205.297 35.336 205.183 34.85 204.943 34.43C204.703 34.01 204.373 33.68 203.953 33.44C203.545 33.2 203.071 33.08 202.531 33.08C201.979 33.08 201.493 33.2 201.073 33.44C200.665 33.68 200.341 34.016 200.101 34.448C199.873 34.868 199.759 35.366 199.759 35.942V36.302C199.759 36.878 199.891 37.388 200.155 37.832C200.419 38.276 200.791 38.618 201.271 38.858C201.751 39.098 202.303 39.218 202.927 39.218C203.467 39.218 203.953 39.134 204.385 38.966C204.817 38.798 205.201 38.534 205.537 38.174L206.743 39.56C206.311 40.064 205.765 40.454 205.105 40.73C204.457 40.994 203.713 41.126 202.873 41.126ZM213.62 41.126C212.804 41.126 212.084 40.976 211.46 40.676C210.836 40.364 210.35 39.896 210.002 39.272C209.654 38.636 209.48 37.838 209.48 36.878V31.388H211.73V36.572C211.73 37.436 211.922 38.084 212.306 38.516C212.702 38.936 213.26 39.146 213.98 39.146C214.508 39.146 214.964 39.038 215.348 38.822C215.744 38.606 216.05 38.282 216.266 37.85C216.494 37.418 216.608 36.884 216.608 36.248V31.388H218.858V41H216.716V38.408L217.094 39.2C216.77 39.824 216.296 40.304 215.672 40.64C215.048 40.964 214.364 41.126 213.62 41.126ZM226.322 41.126C225.254 41.126 224.318 40.916 223.514 40.496C222.722 40.064 222.104 39.476 221.66 38.732C221.228 37.988 221.012 37.142 221.012 36.194C221.012 35.234 221.222 34.388 221.642 33.656C222.074 32.912 222.662 32.33 223.406 31.91C224.162 31.49 225.02 31.28 225.98 31.28C226.916 31.28 227.75 31.484 228.482 31.892C229.214 32.3 229.79 32.876 230.21 33.62C230.63 34.364 230.84 35.24 230.84 36.248C230.84 36.344 230.834 36.452 230.822 36.572C230.822 36.692 230.816 36.806 230.804 36.914H222.794V35.42H229.616L228.734 35.888C228.746 35.336 228.632 34.85 228.392 34.43C228.152 34.01 227.822 33.68 227.402 33.44C226.994 33.2 226.52 33.08 225.98 33.08C225.428 33.08 224.942 33.2 224.522 33.44C224.114 33.68 223.79 34.016 223.55 34.448C223.322 34.868 223.208 35.366 223.208 35.942V36.302C223.208 36.878 223.34 37.388 223.604 37.832C223.868 38.276 224.24 38.618 224.72 38.858C225.2 39.098 225.752 39.218 226.376 39.218C226.916 39.218 227.402 39.134 227.834 38.966C228.266 38.798 228.65 38.534 228.986 38.174L230.192 39.56C229.76 40.064 229.214 40.454 228.554 40.73C227.906 40.994 227.162 41.126 226.322 41.126Z" fill="#141414"/>
<rect x="69" y="105" width="38" height="38" rx="19" fill="white"/>
<rect x="69" y="105" width="38" height="38" rx="19" stroke="#0032FF" stroke-width="2"/>
<path d="M88.5081 166.128C87.6334 166.128 86.8494 165.904 86.1561 165.456C85.4734 165.008 84.9294 164.357 84.5241 163.504C84.1294 162.651 83.9321 161.616 83.9321 160.4C83.9321 159.184 84.1294 158.149 84.5241 157.296C84.9294 156.443 85.4734 155.792 86.1561 155.344C86.8494 154.896 87.6334 154.672 88.5081 154.672C89.3721 154.672 90.1507 154.896 90.8441 155.344C91.5374 155.792 92.0814 156.443 92.4761 157.296C92.8707 158.149 93.0681 159.184 93.0681 160.4C93.0681 161.616 92.8707 162.651 92.4761 163.504C92.0814 164.357 91.5374 165.008 90.8441 165.456C90.1507 165.904 89.3721 166.128 88.5081 166.128ZM88.5081 164.704C89.0947 164.704 89.6067 164.544 90.0441 164.224C90.4921 163.904 90.8387 163.424 91.0841 162.784C91.3401 162.144 91.4681 161.349 91.4681 160.4C91.4681 159.451 91.3401 158.656 91.0841 158.016C90.8387 157.376 90.4921 156.896 90.0441 156.576C89.6067 156.256 89.0947 156.096 88.5081 156.096C87.9214 156.096 87.4041 156.256 86.9561 156.576C86.5081 156.896 86.1561 157.376 85.9001 158.016C85.6547 158.656 85.5321 159.451 85.5321 160.4C85.5321 161.349 85.6547 162.144 85.9001 162.784C86.1561 163.424 86.5081 163.904 86.9561 164.224C87.4041 164.544 87.9214 164.704 88.5081 164.704Z" fill="black"/>
<path d="M130.023 85.44C130.716 85.44 131.324 85.5733 131.847 85.84C132.38 86.1067 132.796 86.512 133.095 87.056C133.394 87.6 133.543 88.288 133.543 89.12V94H132.007V89.296C132.007 88.4747 131.804 87.856 131.399 87.44C131.004 87.024 130.444 86.816 129.719 86.816C129.175 86.816 128.7 86.9227 128.295 87.136C127.89 87.3493 127.575 87.664 127.351 88.08C127.138 88.496 127.031 89.0133 127.031 89.632V94H125.495V82.128H127.031V87.808L126.727 87.2C127.004 86.6453 127.431 86.2133 128.007 85.904C128.583 85.5947 129.255 85.44 130.023 85.44ZM140.162 94.096C139.255 94.096 138.455 93.9093 137.762 93.536C137.079 93.1627 136.546 92.6507 136.162 92C135.788 91.3493 135.602 90.6027 135.602 89.76C135.602 88.9173 135.783 88.1707 136.146 87.52C136.519 86.8693 137.026 86.3627 137.666 86C138.316 85.6267 139.047 85.44 139.858 85.44C140.679 85.44 141.404 85.6213 142.034 85.984C142.663 86.3467 143.154 86.8587 143.506 87.52C143.868 88.1707 144.05 88.9333 144.05 89.808C144.05 89.872 144.044 89.9467 144.034 90.032C144.034 90.1173 144.028 90.1973 144.018 90.272H136.802V89.168H143.218L142.594 89.552C142.604 89.008 142.492 88.5227 142.258 88.096C142.023 87.6693 141.698 87.3387 141.282 87.104C140.876 86.8587 140.402 86.736 139.858 86.736C139.324 86.736 138.85 86.8587 138.434 87.104C138.018 87.3387 137.692 87.6747 137.458 88.112C137.223 88.5387 137.106 89.0293 137.106 89.584V89.84C137.106 90.4053 137.234 90.912 137.49 91.36C137.756 91.7973 138.124 92.1387 138.594 92.384C139.063 92.6293 139.602 92.752 140.21 92.752C140.711 92.752 141.164 92.6667 141.57 92.496C141.986 92.3253 142.348 92.0693 142.658 91.728L143.506 92.72C143.122 93.168 142.642 93.5093 142.066 93.744C141.5 93.9787 140.866 94.096 140.162 94.096ZM151.212 94V92.208L151.132 91.872V88.816C151.132 88.1653 150.94 87.664 150.556 87.312C150.183 86.9493 149.618 86.768 148.86 86.768C148.359 86.768 147.868 86.8533 147.388 87.024C146.908 87.184 146.503 87.4027 146.172 87.68L145.532 86.528C145.97 86.176 146.492 85.9093 147.1 85.728C147.719 85.536 148.364 85.44 149.036 85.44C150.199 85.44 151.095 85.7227 151.724 86.288C152.354 86.8533 152.668 87.7173 152.668 88.88V94H151.212ZM148.428 94.096C147.799 94.096 147.244 93.9893 146.764 93.776C146.295 93.5627 145.932 93.2693 145.676 92.896C145.42 92.512 145.292 92.08 145.292 91.6C145.292 91.1413 145.399 90.7253 145.612 90.352C145.836 89.9787 146.194 89.68 146.684 89.456C147.186 89.232 147.858 89.12 148.7 89.12H151.388V90.224H148.764C147.996 90.224 147.479 90.352 147.212 90.608C146.946 90.864 146.812 91.1733 146.812 91.536C146.812 91.952 146.978 92.288 147.308 92.544C147.639 92.7893 148.098 92.912 148.684 92.912C149.26 92.912 149.762 92.784 150.188 92.528C150.626 92.272 150.94 91.8987 151.132 91.408L151.436 92.464C151.234 92.9653 150.876 93.3653 150.364 93.664C149.852 93.952 149.207 94.096 148.428 94.096ZM159.015 94.096C158.193 94.096 157.457 93.9147 156.807 93.552C156.167 93.1893 155.66 92.6827 155.287 92.032C154.913 91.3813 154.727 90.624 154.727 89.76C154.727 88.896 154.913 88.144 155.287 87.504C155.66 86.8533 156.167 86.3467 156.807 85.984C157.457 85.6213 158.193 85.44 159.015 85.44C159.729 85.44 160.375 85.6 160.951 85.92C161.527 86.24 161.985 86.72 162.327 87.36C162.679 88 162.855 88.8 162.855 89.76C162.855 90.72 162.684 91.52 162.343 92.16C162.012 92.8 161.559 93.2853 160.983 93.616C160.407 93.936 159.751 94.096 159.015 94.096ZM159.143 92.752C159.676 92.752 160.156 92.6293 160.583 92.384C161.02 92.1387 161.361 91.792 161.607 91.344C161.863 90.8853 161.991 90.3573 161.991 89.76C161.991 89.152 161.863 88.6293 161.607 88.192C161.361 87.744 161.02 87.3973 160.583 87.152C160.156 86.9067 159.676 86.784 159.143 86.784C158.599 86.784 158.113 86.9067 157.687 87.152C157.26 87.3973 156.919 87.744 156.663 88.192C156.407 88.6293 156.279 89.152 156.279 89.76C156.279 90.3573 156.407 90.8853 156.663 91.344C156.919 91.792 157.26 92.1387 157.687 92.384C158.113 92.6293 158.599 92.752 159.143 92.752ZM162.039 94V91.712L162.135 89.744L161.975 87.776V82.128H163.511V94H162.039Z" fill="#3D3D3D"/>
<rect x="125" y="105" width="38" height="38" rx="19" fill="white"/>
<path d="M139.904 130V128.608L144.352 124.384C144.725 124.032 145.002 123.723 145.184 123.456C145.365 123.189 145.482 122.944 145.536 122.72C145.6 122.485 145.632 122.267 145.632 122.064C145.632 121.552 145.456 121.157 145.104 120.88C144.752 120.592 144.234 120.448 143.552 120.448C143.008 120.448 142.512 120.544 142.064 120.736C141.626 120.928 141.248 121.221 140.928 121.616L139.472 120.496C139.909 119.909 140.496 119.456 141.232 119.136C141.978 118.805 142.81 118.64 143.728 118.64C144.538 118.64 145.242 118.773 145.84 119.04C146.448 119.296 146.912 119.664 147.232 120.144C147.562 120.624 147.728 121.195 147.728 121.856C147.728 122.219 147.68 122.581 147.584 122.944C147.488 123.296 147.306 123.669 147.04 124.064C146.773 124.459 146.384 124.901 145.872 125.392L142.048 129.024L141.616 128.24H148.16V130H139.904Z" fill="#3D3D3D"/>
<rect x="125" y="105" width="38" height="38" rx="19" stroke="#D252E1" stroke-width="2"/>
<path d="M143.695 166V155.44L144.383 156.192H141.167V154.8H145.279V166H143.695Z" fill="black"/>
<rect x="181" y="105" width="38" height="38" rx="19" fill="white"/>
<path d="M199.568 130.16C198.778 130.16 198.005 130.048 197.248 129.824C196.501 129.589 195.872 129.269 195.36 128.864L196.256 127.248C196.661 127.579 197.152 127.845 197.728 128.048C198.304 128.251 198.906 128.352 199.536 128.352C200.282 128.352 200.864 128.203 201.28 127.904C201.696 127.595 201.904 127.179 201.904 126.656C201.904 126.144 201.712 125.739 201.328 125.44C200.944 125.141 200.325 124.992 199.472 124.992H198.448V123.568L201.648 119.76L201.92 120.544H195.904V118.8H203.536V120.192L200.336 124L199.248 123.36H199.872C201.248 123.36 202.277 123.669 202.96 124.288C203.653 124.896 204 125.68 204 126.64C204 127.269 203.84 127.851 203.52 128.384C203.2 128.917 202.709 129.349 202.048 129.68C201.397 130 200.57 130.16 199.568 130.16Z" fill="#3D3D3D"/>
<rect x="181" y="105" width="38" height="38" rx="19" stroke="#D252E1" stroke-width="2"/>
<path d="M195.998 166V164.912L200.558 160.512C200.964 160.128 201.262 159.792 201.454 159.504C201.657 159.205 201.79 158.933 201.854 158.688C201.929 158.432 201.966 158.187 201.966 157.952C201.966 157.376 201.764 156.923 201.358 156.592C200.953 156.261 200.361 156.096 199.582 156.096C198.985 156.096 198.446 156.197 197.966 156.4C197.486 156.592 197.07 156.896 196.718 157.312L195.63 156.368C196.057 155.824 196.628 155.408 197.342 155.12C198.068 154.821 198.862 154.672 199.726 154.672C200.505 154.672 201.182 154.8 201.758 155.056C202.334 155.301 202.777 155.659 203.086 156.128C203.406 156.597 203.566 157.152 203.566 157.792C203.566 158.155 203.518 158.512 203.422 158.864C203.326 159.216 203.145 159.589 202.878 159.984C202.612 160.379 202.228 160.821 201.726 161.312L197.662 165.232L197.278 164.608H204.046V166H195.998Z" fill="black"/>
<path d="M191.806 190.096C190.952 190.096 190.291 189.867 189.822 189.408C189.352 188.949 189.118 188.293 189.118 187.44V179.664H190.654V187.376C190.654 187.835 190.766 188.187 190.99 188.432C191.224 188.677 191.555 188.8 191.982 188.8C192.462 188.8 192.862 188.667 193.182 188.4L193.662 189.504C193.427 189.707 193.144 189.856 192.814 189.952C192.494 190.048 192.158 190.096 191.806 190.096ZM187.678 182.784V181.52H193.086V182.784H187.678ZM200.783 190V188.208L200.703 187.872V184.816C200.703 184.165 200.511 183.664 200.127 183.312C199.753 182.949 199.188 182.768 198.431 182.768C197.929 182.768 197.439 182.853 196.959 183.024C196.479 183.184 196.073 183.403 195.743 183.68L195.103 182.528C195.54 182.176 196.063 181.909 196.671 181.728C197.289 181.536 197.935 181.44 198.607 181.44C199.769 181.44 200.665 181.723 201.295 182.288C201.924 182.853 202.239 183.717 202.239 184.88V190H200.783ZM197.999 190.096C197.369 190.096 196.815 189.989 196.335 189.776C195.865 189.563 195.503 189.269 195.247 188.896C194.991 188.512 194.863 188.08 194.863 187.6C194.863 187.141 194.969 186.725 195.183 186.352C195.407 185.979 195.764 185.68 196.255 185.456C196.756 185.232 197.428 185.12 198.271 185.12H200.959V186.224H198.335C197.567 186.224 197.049 186.352 196.783 186.608C196.516 186.864 196.383 187.173 196.383 187.536C196.383 187.952 196.548 188.288 196.879 188.544C197.209 188.789 197.668 188.912 198.255 188.912C198.831 188.912 199.332 188.784 199.759 188.528C200.196 188.272 200.511 187.899 200.703 187.408L201.007 188.464C200.804 188.965 200.447 189.365 199.935 189.664C199.423 189.952 198.777 190.096 197.999 190.096ZM205.081 190V181.52H206.617V190H205.081ZM205.849 179.888C205.55 179.888 205.3 179.792 205.097 179.6C204.905 179.408 204.809 179.173 204.809 178.896C204.809 178.608 204.905 178.368 205.097 178.176C205.3 177.984 205.55 177.888 205.849 177.888C206.148 177.888 206.393 177.984 206.585 178.176C206.788 178.357 206.889 178.587 206.889 178.864C206.889 179.152 206.793 179.397 206.601 179.6C206.409 179.792 206.158 179.888 205.849 179.888ZM209.55 190V178.128H211.086V190H209.55Z" fill="#3D3D3D"/>
<rect x="237" y="105" width="38" height="38" rx="19" fill="white"/>
<rect x="237" y="105" width="38" height="38" rx="19" stroke="#0032FF" stroke-width="2"/>
<path d="M255.614 166.128C254.825 166.128 254.057 166.005 253.31 165.76C252.574 165.515 251.971 165.184 251.502 164.768L252.238 163.504C252.611 163.856 253.097 164.144 253.694 164.368C254.291 164.592 254.931 164.704 255.614 164.704C256.446 164.704 257.091 164.528 257.55 164.176C258.019 163.813 258.254 163.328 258.254 162.72C258.254 162.133 258.03 161.664 257.582 161.312C257.145 160.949 256.446 160.768 255.486 160.768H254.59V159.648L257.918 155.552L258.142 156.192H252.014V154.8H259.406V155.888L256.094 159.968L255.262 159.472H255.79C257.145 159.472 258.158 159.776 258.83 160.384C259.513 160.992 259.854 161.765 259.854 162.704C259.854 163.333 259.699 163.909 259.39 164.432C259.081 164.955 258.611 165.371 257.982 165.68C257.363 165.979 256.574 166.128 255.614 166.128Z" fill="black"/>
<rect x="293" y="105" width="38" height="38" rx="19" fill="white"/>
<rect x="293" y="105" width="38" height="38" rx="19" stroke="#0032FF" stroke-width="2"/>
<path d="M307.756 163.248V162.128L313.484 154.8H315.212L309.532 162.128L308.716 161.872H317.66V163.248H307.756ZM313.98 166V163.248L314.028 161.872V159.44H315.532V166H313.98Z" fill="black"/>
<rect x="0.5" y="0.5" width="399" height="219" rx="19.5" stroke="#141414"/>
<defs>
<linearGradient id="paint0_linear_154_3225" x1="479" y1="-48" x2="-80.5" y2="263.5" gradientUnits="userSpaceOnUse">
<stop stop-color="#82CEFF"/>
<stop offset="1" stop-color="#FF6B9B"/>
</linearGradient>
</defs>
</svg>
